<?xml version="1.0" encoding="UTF-8" standalone="no"?>
<svg
   xmlns:dc="http://purl.org/dc/elements/1.1/"
   xmlns:cc="http://creativecommons.org/ns#"
   xmlns:rdf="http://www.w3.org/1999/02/22-rdf-syntax-ns#"
   xmlns:svg="http://www.w3.org/2000/svg"
   xmlns="http://www.w3.org/2000/svg"
   xmlns:sodipodi="http://sodipodi.sourceforge.net/DTD/sodipodi-0.dtd"
   xmlns:inkscape="http://www.inkscape.org/namespaces/inkscape"
   id="svg8"
   version="1.1"
   viewBox="0 0 280 280"
   height="280mm"
   width="280mm"
   sodipodi:docname="logo8.svg"
   inkscape:version="0.92.3 (2405546, 2018-03-11)">
  <sodipodi:namedview
     pagecolor="#ffffff"
     bordercolor="#666666"
     borderopacity="1"
     objecttolerance="10"
     gridtolerance="10"
     guidetolerance="10"
     inkscape:pageopacity="0"
     inkscape:pageshadow="2"
     inkscape:window-width="1600"
     inkscape:window-height="837"
     id="namedview1215"
     showgrid="false"
     inkscape:zoom="0.47315156"
     inkscape:cx="413.66807"
     inkscape:cy="641.44351"
     inkscape:window-x="-8"
     inkscape:window-y="-8"
     inkscape:window-maximized="1"
     inkscape:current-layer="g1520" />
  <defs
     id="defs2">
    <clipPath
       id="clipPath20"
       clipPathUnits="userSpaceOnUse">
      <path
         id="path18"
         d="M 21430,0 H 9430 V 8000 H 21430 V 0 M 12737,6692.98 V 1304.97 h 5388 v 5388.01 h -5388"
         inkscape:connector-curvature="0" />
    </clipPath>
    <radialGradient
       id="radialGradient28"
       spreadMethod="pad"
       gradientTransform="matrix(6000,0,0,-4000,15430,4000)"
       gradientUnits="userSpaceOnUse"
       r="1"
       cy="0"
       cx="0"
       fy="0"
       fx="0">
      <stop
         id="stop24"
         offset="0"
         style="stop-opacity:1;stop-color:#f7f7f5" />
      <stop
         id="stop26"
         offset="1"
         style="stop-opacity:1;stop-color:#f2f0cc" />
    </radialGradient>
    <clipPath
       id="clipPath38"
       clipPathUnits="userSpaceOnUse">
      <path
         id="path36"
         d="m 12737,4535 v 2158 h 2158 V 4535 Z"
         inkscape:connector-curvature="0" />
    </clipPath>
    <clipPath
       id="clipPath50"
       clipPathUnits="userSpaceOnUse">
      <path
         id="path48"
         d="m 14889,4535 v 2158 h 2164 V 4535 Z"
         inkscape:connector-curvature="0" />
    </clipPath>
    <clipPath
       id="clipPath62"
       clipPathUnits="userSpaceOnUse">
      <path
         id="path60"
         d="m 17047,2377 v 4316 h 1078 V 2377 Z"
         inkscape:connector-curvature="0" />
    </clipPath>
    <clipPath
       id="clipPath74"
       clipPathUnits="userSpaceOnUse">
      <path
         id="path72"
         d="m 12737,2377 v 2164 h 2158 V 2377 Z"
         inkscape:connector-curvature="0" />
    </clipPath>
    <clipPath
       id="clipPath86"
       clipPathUnits="userSpaceOnUse">
      <path
         id="path84"
         d="m 14889.8,2377.77 h 2162.4 v 2162.4 h -2162.4 z"
         inkscape:connector-curvature="0" />
    </clipPath>
    <clipPath
       id="clipPath98"
       clipPathUnits="userSpaceOnUse">
      <path
         id="path96"
         d="m 12737,1304 v 1079 h 4316 V 1304 Z"
         inkscape:connector-curvature="0" />
    </clipPath>
    <clipPath
       id="clipPath110"
       clipPathUnits="userSpaceOnUse">
      <path
         id="path108"
         d="m 17047,1304 v 1079 h 1078 V 1304 Z"
         inkscape:connector-curvature="0" />
    </clipPath>
    <clipPath
       id="clipPath1152"
       clipPathUnits="userSpaceOnUse">
      <path
         id="path1150"
         d="M 8000,0 H 0 V 8000 H 8000 V 0 M 1307.02,6692.98 V 1304.97 h 5388 v 5388.01 h -5388"
         inkscape:connector-curvature="0" />
    </clipPath>
    <radialGradient
       id="radialGradient1158"
       spreadMethod="pad"
       gradientTransform="matrix(4000,0,0,-4000,4000,4000)"
       gradientUnits="userSpaceOnUse"
       r="1"
       cy="0"
       cx="0"
       fy="0"
       fx="0">
      <stop
         id="stop1154"
         offset="0"
         style="stop-opacity:1;stop-color:#f7f7f5" />
      <stop
         id="stop1156"
         offset="1"
         style="stop-opacity:1;stop-color:#f2f0cc" />
    </radialGradient>
    <clipPath
       id="clipPath1168"
       clipPathUnits="userSpaceOnUse">
      <path
         id="path1166"
         d="M 1307,4535 V 6693 H 3465 V 4535 Z"
         inkscape:connector-curvature="0" />
    </clipPath>
    <clipPath
       id="clipPath1180"
       clipPathUnits="userSpaceOnUse">
      <path
         id="path1178"
         d="M 3459,4535 V 6693 H 5623 V 4535 Z"
         inkscape:connector-curvature="0" />
    </clipPath>
    <clipPath
       id="clipPath1192"
       clipPathUnits="userSpaceOnUse">
      <path
         id="path1190"
         d="M 5617,2377 V 6693 H 6696 V 2377 Z"
         inkscape:connector-curvature="0" />
    </clipPath>
    <clipPath
       id="clipPath1204"
       clipPathUnits="userSpaceOnUse">
      <path
         id="path1202"
         d="M 1307,2377 V 4541 H 3465 V 2377 Z"
         inkscape:connector-curvature="0" />
    </clipPath>
    <clipPath
       id="clipPath1216"
       clipPathUnits="userSpaceOnUse">
      <path
         id="path1214"
         d="m 3459.82,2377.77 h 2162.4 v 2162.4 h -2162.4 z"
         inkscape:connector-curvature="0" />
    </clipPath>
    <clipPath
       id="clipPath1228"
       clipPathUnits="userSpaceOnUse">
      <path
         id="path1226"
         d="M 1307,1304 V 2383 H 5623 V 1304 Z"
         inkscape:connector-curvature="0" />
    </clipPath>
    <clipPath
       id="clipPath1240"
       clipPathUnits="userSpaceOnUse">
      <path
         id="path1238"
         d="M 5617,1304 V 2383 H 6696 V 1304 Z"
         inkscape:connector-curvature="0" />
    </clipPath>
    <clipPath
       id="clipPath1488"
       clipPathUnits="userSpaceOnUse">
      <path
         id="path1486"
         d="M 0,0 H 8000 V 8000 H 0 Z"
         inkscape:connector-curvature="0" />
    </clipPath>
  </defs>
  <metadata
     id="metadata5">
    <rdf:RDF>
      <cc:Work
         rdf:about="">
        <dc:format>image/svg+xml</dc:format>
        <dc:type
           rdf:resource="http://purl.org/dc/dcmitype/StillImage" />
        <dc:title></dc:title>
      </cc:Work>
    </rdf:RDF>
  </metadata>
  <g
     transform="translate(-3.9067691,-113.77015)"
     id="layer1">
    <g
       transform="matrix(0.35277777,0,0,-0.35277777,-439.23239,290.93235)"
       id="g10">
      <g
         transform="scale(0.1)"
         id="g12">
        <g
           id="g14" />
        <g
           id="g1520">
          <g
             transform="translate(15.851158,-3439.7013)"
             id="g1365">
            <path
               inkscape:connector-curvature="0"
               id="path1298"
               style="fill:#ed4d0f;fill-opacity:1;fill-rule:nonzero;stroke:none"
               d="m 14025.985,3468.2707 c -6.35,-67.48 -13.7,-135.49 -27.56,-201.91 -14.78,-71 -85.1,-107.25 -145.86,-136.98 -14.089,-6.95 11.31,-14.33 19.83,-10.21 58.62,28.81 132.49,66.11 150.28,133.81 18.36,69.96 24,144.61 30.7,216.44 0.98,10.12 -26.4,9.85 -27.39,-1.15" />
            <path
               inkscape:connector-curvature="0"
               id="path1300"
               style="fill:#ed4d0f;fill-opacity:1;fill-rule:nonzero;stroke:none"
               d="m 13999.035,3059.8307 c 5.56,56.99 11.05,114.03 16.59,171.06 -9.02,-0.73 -17.93,-1.41 -26.85,-2.09 32.03,-47.85 70.45,-101.66 121.15,-130.73 5.3,-3.04 30.08,1.1 23.5,4.87 -49.35,28.32 -87.15,82.46 -118.35,129.02 -2.87,4.2 -26.28,3.75 -26.85,-2.17 -5.54,-57.03 -11.07,-114.06 -16.57,-171.11 -0.51,-4.71 26.76,-5.39 27.38,1.15" />
            <path
               inkscape:connector-curvature="0"
               id="path1302"
               style="fill:#ed4d0f;fill-opacity:1;fill-rule:nonzero;stroke:none"
               d="m 14222.685,3466.1407 c -8.92,-75.62 -17.99,-158.3 -0.82,-233.1 15.12,-66.06 130.34,-92.39 185.06,-110.22 17.63,-5.72 12.19,11.95 -0.51,16.04 -30.37,9.92 -60.13,21.52 -89.42,34.31 -56.83,24.87 -73.16,47.76 -76.97,107.21 -3.74,59 1.38,119.51 8.3,178.11 1.1,9.57 -24.3,19.23 -25.64,7.65" />
            <path
               inkscape:connector-curvature="0"
               id="path1304"
               style="fill:#ed4d0f;fill-opacity:1;fill-rule:nonzero;stroke:none"
               d="m 14361.675,3063.9007 c -42.78,37.63 -77.64,86.15 -102.57,137.36 -2.02,4.08 -21.47,16.39 -24.85,10.47 -26.35,-45.98 -34.03,-103.75 -17.25,-154.1 2.37,-7.02 25.94,-12.62 24.85,-9.38 -16.62,49.63 -8.72,106.47 17.25,151.82 -8.35,3.51 -16.57,7.03 -24.85,10.52 26.24,-53.65 62.65,-103.96 107.54,-143.37 3.97,-3.5 29.53,-11.74 19.88,-3.32" />
            <path
               inkscape:connector-curvature="0"
               id="path1306"
               style="fill:#dfe000;fill-opacity:1;fill-rule:nonzero;stroke:none"
               d="m 14765.675,5255.3807 c -187.28,93 -656.87,85.98 -785.1,-402.89 -104.25,-397.44 -187.799,-1169.53 -647.892,-1226.21 0,0 207.988,-199.3 731.932,-191.76 523.93,7.54 917.74,485.06 991.15,778.71 87.64,350.61 118.8,839.1 -290.09,1042.15" />
            <path
               inkscape:connector-curvature="0"
               id="path1308"
               style="fill:#bebe00;fill-opacity:1;fill-rule:nonzero;stroke:none"
               d="m 14623.705,4929.2807 c 12.55,-47.84 61.51,-76.42 109.31,-63.89 47.82,12.55 76.43,61.49 63.87,109.33 -12.55,47.82 -61.48,76.43 -109.3,63.87 -47.82,-12.55 -76.43,-61.5 -63.88,-109.31" />
            <path
               inkscape:connector-curvature="0"
               id="path1310"
               style="fill:#332f31;fill-opacity:1;fill-rule:nonzero;stroke:none"
               d="m 14780.075,4944.5607 c -4.08,-38.54 -38.67,-66.49 -77.21,-62.38 -38.55,4.1 -66.46,38.69 -62.35,77.24 4.1,38.56 38.66,66.48 77.21,62.37 38.54,-4.09 66.47,-38.68 62.35,-77.23" />
            <path
               inkscape:connector-curvature="0"
               id="path1312"
               style="fill:#e2dcdf;fill-opacity:1;fill-rule:nonzero;stroke:none"
               d="m 14740.505,4979.1507 c -1.45,-13.65 -13.68,-23.57 -27.35,-22.12 -13.65,1.46 -23.56,13.73 -22.09,27.39 1.44,13.65 13.72,23.56 27.36,22.09 13.66,-1.44 23.53,-13.71 22.08,-27.36" />
            <path
               inkscape:connector-curvature="0"
               id="path1314"
               style="fill:#ed4d0f;fill-opacity:1;fill-rule:nonzero;stroke:none"
               d="m 15020.765,5015.0907 c 0,0 140.6,-10.02 177.25,-47.29 36.64,-37.28 -97.84,-199.05 -97.84,-199.05 0,0 -22.13,161.44 -79.41,246.34" />
            <path
               inkscape:connector-curvature="0"
               id="path1316"
               style="fill:#bebe00;fill-opacity:1;fill-rule:nonzero;stroke:none"
               d="m 13416.265,3978.3707 c 0,0 745.85,-134.53 1121.14,152.87 405.45,310.51 59.26,674.15 -292.26,419.47 -238.3,-172.58 -360.93,-407.75 -828.88,-572.34" />
            <path
               inkscape:connector-curvature="0"
               id="path1318"
               style="fill:#bebe00;fill-opacity:1;fill-rule:nonzero;stroke:none"
               d="m 13502.648,3687.7407 c 0,0 -224.215,9.94 -335.231,273.17 0,0 -186.273,12.18 -174.293,-251.43 0,0 217.106,-187.46 449.742,-154.57 0,0 -72.32,57.95 59.782,132.83" />
            <path
               inkscape:connector-curvature="0"
               id="path1320"
               style="fill:#a0a000;fill-opacity:1;fill-rule:nonzero;stroke:none"
               d="m 13098.069,3637.6507 c 0,0 -22.367,191.99 124.118,222.98 -19.957,28.83 -38.598,61.92 -54.77,100.28 0,0 -186.273,12.18 -174.293,-251.43 0,0 40.41,-34.84 104.945,-71.83" />
            <path
               inkscape:connector-curvature="0"
               id="path1322"
               style="fill:#dfe000;fill-opacity:1;fill-rule:nonzero;stroke:none"
               d="m 14357.665,5193.3607 27.57,7.11 -0.22,0.89 c -3.25,12.64 -39.24,165.47 99.13,205.89 l -7.98,27.33 c -101.01,-29.5 -123.62,-109.88 -125.46,-169.82 -10.76,12.56 -24.6,24.72 -42.18,34.07 -42.97,22.84 -96.41,22.84 -158.81,-0.04 l 9.81,-26.74 c 54.46,19.98 100.07,20.52 135.64,1.63 47.74,-25.39 61.81,-77.69 62.4,-79.95 l 0.1,-0.37" />
            <path
               inkscape:connector-curvature="0"
               id="path1324"
               style="fill:#dfe000;fill-opacity:1;fill-rule:nonzero;stroke:none"
               d="m 14357.185,5207.2007 25.61,12.46 c -24.1,49.5 -82.3,191.5 -62.62,253.31 l -27.13,8.65 c -27.16,-85.3 60.4,-266.74 64.14,-274.42" />
            <path
               inkscape:connector-curvature="0"
               id="path1326"
               style="fill:#b1b100;fill-opacity:1;fill-rule:nonzero;stroke:none"
               d="m 14704.415,3974.9907 c -16.27,-23.65 -38.74,-36.39 -50.22,-28.48 -11.49,7.89 -7.67,33.46 8.58,57.09 16.23,23.65 38.76,36.37 50.24,28.48 11.5,-7.91 7.63,-33.46 -8.6,-57.09" />
            <path
               inkscape:connector-curvature="0"
               id="path1328"
               style="fill:#b1b100;fill-opacity:1;fill-rule:nonzero;stroke:none"
               d="m 14731.325,3839.0707 c -16.24,-23.61 -38.75,-36.37 -50.25,-28.48 -11.47,7.91 -7.62,33.48 8.6,57.11 16.25,23.62 38.75,36.37 50.24,28.46 11.49,-7.89 7.67,-33.46 -8.59,-57.09" />
            <path
               inkscape:connector-curvature="0"
               id="path1330"
               style="fill:#b1b100;fill-opacity:1;fill-rule:nonzero;stroke:none"
               d="m 14583.265,3805.8307 c -19.38,-21.11 -43.43,-30.61 -53.73,-21.17 -10.25,9.45 -2.86,34.22 16.51,55.35 19.39,21.11 43.47,30.6 53.72,21.17 10.27,-9.47 2.91,-34.22 -16.5,-55.35" />
            <path
               inkscape:connector-curvature="0"
               id="path1332"
               style="fill:#b1b100;fill-opacity:1;fill-rule:nonzero;stroke:none"
               d="m 14562.485,3669.3607 c -24.24,-15.31 -49.95,-18.2 -57.37,-6.38 -7.46,11.76 6.11,33.75 30.35,49.08 24.24,15.35 49.92,18.2 57.37,6.43 7.49,-11.8 -6.12,-33.79 -30.35,-49.13" />
            <path
               inkscape:connector-curvature="0"
               id="path1334"
               style="fill:#b1b100;fill-opacity:1;fill-rule:nonzero;stroke:none"
               d="m 14404.165,3712.3707 c -26.66,-10.58 -52.46,-8.63 -57.57,4.32 -5.15,12.97 12.27,32.03 38.91,42.63 26.65,10.59 52.44,8.66 57.59,-4.31 5.15,-12.97 -12.27,-32.05 -38.93,-42.64" />
            <path
               inkscape:connector-curvature="0"
               id="path1336"
               style="fill:#b1b100;fill-opacity:1;fill-rule:nonzero;stroke:none"
               d="m 14321.955,3582.4907 c -27.9,-6.5 -53.11,-0.76 -56.28,12.81 -3.16,13.6 16.92,29.9 44.84,36.41 27.92,6.5 53.14,0.76 56.29,-12.83 3.17,-13.58 -16.86,-29.87 -44.85,-36.39" />
            <path
               inkscape:connector-curvature="0"
               id="path1338"
               style="fill:#b1b100;fill-opacity:1;fill-rule:nonzero;stroke:none"
               d="m 14152.815,3656.3607 c -28.62,-1.86 -52.56,7.93 -53.46,21.85 -0.88,13.93 21.57,26.72 50.18,28.58 28.62,1.85 52.55,-7.95 53.44,-21.84 0.94,-13.95 -21.53,-26.72 -50.16,-28.59" />
            <path
               inkscape:connector-curvature="0"
               id="path1340"
               style="fill:#b1b100;fill-opacity:1;fill-rule:nonzero;stroke:none"
               d="m 14041.245,3526.0607 c -28.65,1.35 -51.32,13.81 -50.63,27.74 0.67,13.94 24.43,24.12 53.05,22.73 28.65,-1.37 51.35,-13.81 50.65,-27.73 -0.66,-13.95 -24.42,-24.14 -53.07,-22.74" />
            <path
               inkscape:connector-curvature="0"
               id="path1342"
               style="fill:#b1b100;fill-opacity:1;fill-rule:nonzero;stroke:none"
               d="m 14853.955,4050.0307 c -9.35,-27.13 -27.6,-45.41 -40.76,-40.86 -13.2,4.55 -16.34,30.19 -7.02,57.3 9.32,27.13 27.62,45.43 40.79,40.9 13.21,-4.55 16.31,-30.21 6.99,-57.34" />
            <path
               inkscape:connector-curvature="0"
               id="path1344"
               style="fill:#b1b100;fill-opacity:1;fill-rule:nonzero;stroke:none"
               d="m 14543.525,3918.2307 c -19.03,-21.48 -42.89,-31.37 -53.32,-22.11 -10.44,9.26 -3.49,34.14 15.52,55.63 19.01,21.44 42.93,31.32 53.35,22.09 10.45,-9.26 3.49,-34.16 -15.55,-55.61" />
            <path
               inkscape:connector-curvature="0"
               id="path1346"
               style="fill:#b1b100;fill-opacity:1;fill-rule:nonzero;stroke:none"
               d="m 14757.065,4146.4707 c -9.34,-27.13 -27.6,-45.43 -40.77,-40.88 -13.2,4.56 -16.33,30.2 -7.01,57.33 9.32,27.11 27.6,45.41 40.78,40.88 13.22,-4.55 16.32,-30.22 7,-57.33" />
            <path
               inkscape:connector-curvature="0"
               id="path1348"
               style="fill:#b1b100;fill-opacity:1;fill-rule:nonzero;stroke:none"
               d="m 14310.485,3791.4107 c -26.1,-11.93 -51.93,-11.3 -57.72,1.39 -5.81,12.66 10.62,32.62 36.7,44.55 26.08,11.96 51.94,11.31 57.74,-1.36 5.81,-12.72 -10.65,-32.66 -36.72,-44.58" />
            <path
               inkscape:connector-curvature="0"
               id="path1350"
               style="fill:#b1b100;fill-opacity:1;fill-rule:nonzero;stroke:none"
               d="m 13969.345,3632.6107 c -28.3,4.7 -49.34,19.7 -47.05,33.45 2.3,13.75 27.08,21.08 55.37,16.37 28.29,-4.73 49.38,-19.75 47.06,-33.48 -2.3,-13.79 -27.09,-21.09 -55.38,-16.34" />
            <g
               transform="translate(9214.2859,235.71429)"
               id="g1482">
              <g
                 transform="translate(110.59016,-75.402384)"
                 clip-path="url(#clipPath1488)"
                 id="g1484">
                <path
                   inkscape:connector-curvature="0"
                   id="path1490"
                   style="fill:#5d535e;fill-opacity:1;fill-rule:nonzero;stroke:none"
                   d="m 3236.5492,6640.2364 c 0,0 1371.148,-367.67 3480.61,572.63 0,0 -2339.587,-707.59 -3480.61,-248.01 v -324.62" />
                <path
                   inkscape:connector-curvature="0"
                   id="path1492"
                   style="fill:#5d535e;fill-opacity:1;fill-rule:nonzero;stroke:none"
                   d="m 4309.3932,6782.7564 c 0,0 421.886,169.55 628.046,487.43 0,0 -172,-334.27 -491.117,-482.82 l -136.929,-4.61" />
                <path
                   inkscape:connector-curvature="0"
                   id="path1494"
                   style="fill:#ec96a4;fill-opacity:1;fill-rule:nonzero;stroke:none"
                   d="m 4831.9592,7123.4064 c 0,0 -231.465,470.18 403.21,690.94 0,0 178.03,-648.67 -403.21,-690.94" />
                <path
                   inkscape:connector-curvature="0"
                   id="path1496"
                   style="fill:#e46c7f;fill-opacity:1;fill-rule:nonzero;stroke:none"
                   d="m 4841.1292,7145.7664 c 60.71,82.14 118.75,166.34 174.99,251.59 46.09,69.8 90.56,140.76 131.3,213.85 30.68,55.07 62.62,113.44 77.05,175.34 0.38,1.64 -10.52,-0.84 -11.23,-3.79 -13.78,-59.23 -43.94,-114.71 -72.84,-167.69 -39.91,-73.26 -84.71,-143.94 -130.4,-213.74 -57.37,-87.59 -117.01,-173.92 -179.23,-258.16 -1.84,-2.51 8.81,0.48 10.36,2.6" />
                <path
                   inkscape:connector-curvature="0"
                   id="path1498"
                   style="fill:#e46c7f;fill-opacity:1;fill-rule:nonzero;stroke:none"
                   d="m 4843.8892,7377.2864 c 1.21,-31.56 3.36,-63.05 6.22,-94.5 1.63,-17.91 0.44,-79.92 19.73,-89.01 25.46,-12.03 71.06,5.7 95.45,12.54 51.11,14.35 101.81,35.26 145.22,66.08 6.46,4.63 -4.24,4.77 -7.66,2.3 -29.26,-20.75 -213.45,-116.98 -230.72,-59.18 -15.42,51.63 -14.68,111.27 -16.73,164.88 -0.21,4.64 -11.67,0.76 -11.51,-3.11" />
                <path
                   inkscape:connector-curvature="0"
                   id="path1500"
                   style="fill:#e46c7f;fill-opacity:1;fill-rule:nonzero;stroke:none"
                   d="m 4908.8992,7546.8764 c 2.4,-42.1 5.69,-84.19 9.72,-126.19 3.28,-33.96 0.39,-97.64 23.63,-125.93 14.8,-18 85.2,23.85 97.17,30.2 58.78,31.18 123.66,71.58 156.6,131.6 3.64,6.56 -7.66,6.7 -10.22,2.03 -29.31,-53.39 -84.54,-89.32 -136.19,-118.78 -22.84,-12.99 -46.8,-24.26 -71.5,-33.25 -19.95,-7.24 -27.12,-8.45 -32.79,12.3 -20.01,73.13 -20.4,155.15 -24.68,230.56 -0.34,6.07 -12,2.73 -11.74,-2.54" />
                <path
                   inkscape:connector-curvature="0"
                   id="path1502"
                   style="fill:#e46c7f;fill-opacity:1;fill-rule:nonzero;stroke:none"
                   d="m 5001.9292,7633.3964 c 2.38,-27.13 7.96,-193.54 44.53,-191.17 35.38,2.34 75.96,42.48 102.22,62.83 34.51,26.8 81.72,60.43 99.75,102.02 2.5,5.69 -9.38,3.63 -11.19,-0.61 -15.18,-35.03 -53.92,-62.83 -82.48,-86.45 -10.65,-8.8 -90.75,-80.1 -107.74,-69.09 -20.93,13.61 -21.17,80.9 -24.11,102.22 -3.8,27.56 -6.86,55.27 -9.35,82.98 -0.52,5.67 -12.08,2.02 -11.63,-2.73" />
                <path
                   inkscape:connector-curvature="0"
                   id="path1504"
                   style="fill:#e46c7f;fill-opacity:1;fill-rule:nonzero;stroke:none"
                   d="m 5093.2992,7725.6764 c 0.8,-20.36 2.58,-40.71 4.91,-60.93 2.39,-20.66 3.44,-61.83 22.8,-75.16 13.19,-9.09 42.69,16.35 51.92,22.79 23.24,16.24 45.3,34.46 66.69,53.01 4.79,4.16 -7.02,2.04 -9.36,-0.01 -14.64,-12.71 -29.72,-24.89 -45.02,-36.76 -11.97,-9.25 -24.24,-18.16 -37.1,-26.13 -13.52,-8.41 -19.56,-8.42 -25.87,6.01 -15.67,35.76 -15.99,82.02 -17.57,120.46 -0.15,4.07 -11.55,0.11 -11.4,-3.28" />
                <path
                   inkscape:connector-curvature="0"
                   id="path1506"
                   style="fill:#5d535e;fill-opacity:1;fill-rule:nonzero;stroke:none"
                   d="m 4370.1472,6810.1464 c 0,0 48.98,231.22 -13.348,421.98 0,0 86.305,-199.22 86.305,-392.59 l -72.957,-29.39" />
                <path
                   inkscape:connector-curvature="0"
                   id="path1508"
                   style="fill:#ec96a4;fill-opacity:1;fill-rule:nonzero;stroke:none"
                   d="m 4403.2722,7055.6064 c 0,0 -345.328,115.82 -149.977,532.79 0,0 408.474,-228.71 149.977,-532.79" />
                <path
                   inkscape:connector-curvature="0"
                   id="path1510"
                   style="fill:#e46c7f;fill-opacity:1;fill-rule:nonzero;stroke:none"
                   d="m 4396.5652,7070.9764 c -11.696,69.55 -25.696,138.83 -41.071,207.73 -12.578,56.44 -26.504,112.64 -43.297,168.07 -12.644,41.76 -26.339,85.74 -50.21,122.89 -0.633,0.98 -4.641,-5.55 -3.52,-7.32 22.855,-35.55 35.965,-77.24 48.437,-117.11 17.266,-55.11 30.899,-111.35 43.665,-167.59 16.003,-70.58 30.293,-141.67 42.296,-213 0.364,-2.12 3.997,4.53 3.7,6.33" />
                <path
                   inkscape:connector-curvature="0"
                   id="path1512"
                   style="fill:#e46c7f;fill-opacity:1;fill-rule:nonzero;stroke:none"
                   d="m 4282.6542,7184.9364 c 16.293,-14.76 32.993,-29.04 50.016,-42.94 9.699,-7.92 39.992,-38.67 53.797,-33.68 18.234,6.57 31.328,37.44 39.656,52.67 17.446,31.9 31.41,66.81 36.953,102.97 0.809,5.41 -4.414,0.26 -4.832,-2.61 -3.742,-24.37 -44.425,-161.03 -81.496,-141.33 -33.125,17.59 -62.441,46.97 -90.105,72.04 -2.406,2.16 -5.996,-5.32 -3.989,-7.12" />
                <path
                   inkscape:connector-curvature="0"
                   id="path1514"
                   style="fill:#e46c7f;fill-opacity:1;fill-rule:nonzero;stroke:none"
                   d="m 4229.5022,7299.1364 c 22.121,-19.3 44.645,-38.17 67.481,-56.64 18.496,-14.93 48.796,-47.3 74.046,-49.73 16.083,-1.54 29.114,53.15 31.696,62.09 12.762,43.84 23.851,95.15 9.824,140.41 -1.523,4.96 -7.023,-0.48 -5.926,-4.01 12.469,-40.26 3.793,-84.69 -6.383,-124.21 -4.527,-17.45 -10.437,-34.63 -17.836,-51.05 -5.988,-13.25 -8.835,-17.34 -21.886,-10.01 -46.02,25.81 -87.035,65.52 -126.629,100.11 -3.184,2.79 -7.125,-4.53 -4.387,-6.96" />
                <path
                   inkscape:connector-curvature="0"
                   id="path1516"
                   style="fill:#e46c7f;fill-opacity:1;fill-rule:nonzero;stroke:none"
                   d="m 4231.1902,7386.6164 c 14.652,-12.04 100.16,-90.28 116.558,-71.28 15.852,18.39 15.395,57.71 17.895,80.43 3.254,29.87 9.222,69.26 -2.809,98.28 -1.621,3.98 -6.312,-2.81 -5.09,-5.75 10.145,-24.45 5.352,-56.87 3.368,-82.29 -0.739,-9.48 -3.766,-83.23 -17.422,-86.16 -16.844,-3.6 -50.453,29.02 -62.485,37.95 -15.535,11.56 -30.793,23.54 -45.769,35.81 -3.082,2.51 -6.836,-4.91 -4.246,-6.99" />
                <path
                   inkscape:connector-curvature="0"
                   id="path1518"
                   style="fill:#e46c7f;fill-opacity:1;fill-rule:nonzero;stroke:none"
                   d="m 4229.2052,7476.0564 c 10.52,-9.51 21.492,-18.54 32.688,-27.23 11.433,-8.89 32.422,-28.41 48.363,-25.45 10.879,2.01 12.402,28.78 13.637,36.43 3.086,19.22 4.629,38.84 5.687,58.3 0.231,4.36 -4.394,-2.43 -4.508,-4.56 -0.707,-13.33 -1.886,-26.61 -3.351,-39.86 -1.149,-10.32 -2.613,-20.65 -4.824,-30.79 -2.325,-10.69 -5.219,-13.65 -15.446,-9.7 -25.328,9.75 -48.511,32.1 -68.402,50.04 -2.09,1.9 -5.609,-5.59 -3.844,-7.18" />
                <path
                   inkscape:connector-curvature="0"
                   id="path1520"
                   style="fill:#5d535e;fill-opacity:1;fill-rule:nonzero;stroke:none"
                   d="m 4703.5292,6966.9964 c 0,0 68.69,-15.6 205.37,9.98 0,0 -128.01,-59.01 -243.97,-44.8 l 38.6,34.82" />
                <path
                   inkscape:connector-curvature="0"
                   id="path1522"
                   style="fill:#ec96a4;fill-opacity:1;fill-rule:nonzero;stroke:none"
                   d="m 4852.9092,6961.2164 c 0,0 73.85,176.42 286.78,54.76 0,0 -135.77,-204.54 -286.78,-54.76" />
                <path
                   inkscape:connector-curvature="0"
                   id="path1524"
                   style="fill:#e46c7f;fill-opacity:1;fill-rule:nonzero;stroke:none"
                   d="m 4861.2692,6964.0464 c 37.15,3 74.23,7.23 111.16,12.19 30.25,4.05 60.45,8.84 90.32,15.16 22.51,4.78 46.23,9.98 66.72,20.85 0.54,0.3 -2.75,2.69 -3.74,2.19 -19.6,-10.42 -42.09,-15.42 -63.6,-20.18 -29.73,-6.58 -59.92,-11.21 -90.07,-15.38 -37.85,-5.22 -75.91,-9.51 -114,-12.6 -1.13,-0.1 2.24,-2.31 3.21,-2.23" />
                <path
                   inkscape:connector-curvature="0"
                   id="path1526"
                   style="fill:#e46c7f;fill-opacity:1;fill-rule:nonzero;stroke:none"
                   d="m 4925.6192,7018.8064 c -8.39,-7.9 -16.55,-16.04 -24.51,-24.37 -4.55,-4.75 -21.88,-19.29 -19.76,-26.78 2.8,-9.88 18.61,-18.17 26.34,-23.25 16.2,-10.61 34.11,-19.55 53,-24.11 2.83,-0.66 0.3,2.32 -1.2,2.68 -12.73,3.06 -83.37,30.66 -71.62,49.27 10.52,16.62 27.1,30.71 41.36,44.14 1.23,1.17 -2.6,3.4 -3.61,2.42" />
                <path
                   inkscape:connector-curvature="0"
                   id="path1528"
                   style="fill:#e46c7f;fill-opacity:1;fill-rule:nonzero;stroke:none"
                   d="m 4987.8592,7041.5964 c -11.02,-10.76 -21.79,-21.76 -32.39,-32.94 -8.55,-9.05 -26.76,-23.52 -28.98,-36.7 -1.4,-8.39 26.99,-17.72 31.61,-19.49 22.68,-8.69 49.35,-16.85 73.76,-11.52 2.68,0.58 0.01,3.72 -1.89,3.29 -21.72,-4.74 -44.85,1.85 -65.34,8.98 -9.04,3.18 -17.89,7.06 -26.29,11.71 -6.78,3.75 -8.84,5.42 -4.48,11.97 15.32,23.04 37.8,42.81 57.51,62.08 1.59,1.55 -2.12,3.94 -3.51,2.62" />
                <path
                   inkscape:connector-curvature="0"
                   id="path1530"
                   style="fill:#e46c7f;fill-opacity:1;fill-rule:nonzero;stroke:none"
                   d="m 5033.9592,7036.7464 c -6.88,-7.16 -51.34,-48.6 -41.91,-58.09 9.14,-9.18 29.91,-10.72 41.8,-13.06 15.64,-3.07 36.22,-8 51.99,-2.98 2.17,0.68 -1.25,3.45 -2.85,2.94 -13.28,-4.23 -30.21,-0.24 -43.57,1.96 -4.96,0.82 -43.8,5.75 -44.84,13.06 -1.27,9.03 17.18,25.23 22.34,31.15 6.68,7.66 13.56,15.15 20.58,22.48 1.44,1.49 -2.34,3.8 -3.54,2.54" />
                <path
                   inkscape:connector-curvature="0"
                   id="path1532"
                   style="fill:#e46c7f;fill-opacity:1;fill-rule:nonzero;stroke:none"
                   d="m 5081.2692,7033.7464 c -5.42,-5.11 -10.59,-10.48 -15.59,-15.97 -5.11,-5.62 -16.19,-15.77 -15.2,-24.3 0.65,-5.8 14.73,-7.81 18.71,-8.82 10.05,-2.5 20.34,-4.19 30.58,-5.63 2.29,-0.31 -1.12,2.42 -2.25,2.57 -7.01,0.98 -13.98,2.22 -20.91,3.58 -5.42,1.06 -10.81,2.31 -16.09,3.93 -5.55,1.71 -7,3.36 -4.55,8.57 6.08,12.87 18.73,24.06 28.93,33.71 1.09,1.02 -2.73,3.2 -3.63,2.36" />
                <path
                   inkscape:connector-curvature="0"
                   id="path1534"
                   style="fill:#ec96a4;fill-opacity:1;fill-rule:nonzero;stroke:none"
                   d="m 6412.7992,7107.7564 c 0,0 57.25,567.71 820.09,357.3 0,0 -218.87,-692.57 -820.09,-357.3" />
                <path
                   inkscape:connector-curvature="0"
                   id="path1536"
                   style="fill:#e46c7f;fill-opacity:1;fill-rule:nonzero;stroke:none"
                   d="m 6435.5192,7121.8064 c 110.12,34.28 218.89,72.11 326.47,112.03 88.17,32.65 175.42,67.38 260.28,106.42 63.91,29.39 131.11,60.96 183.09,106.88 1.37,1.22 -10.93,5.99 -13.41,3.83 -49.73,-43.97 -113.39,-74.08 -174.27,-102.77 -84.16,-39.71 -171.56,-73.98 -259.3,-106.89 -110.16,-41.29 -221.8,-79.99 -334.71,-115.18 -3.36,-1.05 9.01,-5.21 11.85,-4.32" />
                <path
                   inkscape:connector-curvature="0"
                   id="path1538"
                   style="fill:#e46c7f;fill-opacity:1;fill-rule:nonzero;stroke:none"
                   d="m 6579.2592,7326.4564 c -18.01,-28.91 -35.06,-58.37 -51.39,-88.25 -9.32,-17.01 -48.25,-71.53 -34.7,-92.01 17.88,-27.06 73.83,-40.52 102.15,-50.07 59.33,-20 122.28,-33.89 184.02,-34.26 9.24,-0.03 -1.29,6.96 -6.18,6.97 -41.61,0.26 -282.59,32.66 -264.48,95.26 16.19,55.93 53.26,108.63 83.87,157.74 2.63,4.27 -11.08,8.16 -13.29,4.62" />
                <path
                   inkscape:connector-curvature="0"
                   id="path1540"
                   style="fill:#e46c7f;fill-opacity:1;fill-rule:nonzero;stroke:none"
                   d="m 6746.9392,7435.9364 c -23.27,-39.08 -45.65,-78.71 -67.25,-118.73 -17.44,-32.4 -59.09,-87.32 -53.31,-127.44 3.69,-25.54 98.88,-33.42 114.59,-35.42 77.19,-9.93 166.05,-15.54 235.21,16.83 7.61,3.52 -3.5,10.9 -8.88,8.38 -61.55,-28.79 -138.11,-25.39 -207.19,-18.52 -30.52,3.08 -61.1,8.4 -91.04,16.23 -24.16,6.35 -32,9.87 -24.97,32.01 24.73,78.04 74.31,151.41 116.01,221.4 3.36,5.63 -10.23,10.12 -13.17,5.26" />
                <path
                   inkscape:connector-curvature="0"
                   id="path1542"
                   style="fill:#e46c7f;fill-opacity:1;fill-rule:nonzero;stroke:none"
                   d="m 6891.7392,7453.3864 c -14.15,-25.72 -110,-177.67 -72.37,-199.02 36.46,-20.61 101.09,-10.87 139.5,-9.57 50.47,1.75 117.71,1.44 160.88,26.95 5.95,3.47 -7.06,9.26 -11.44,6.65 -36.37,-21.49 -91.65,-21.42 -134.32,-24.16 -15.91,-1.01 -138.65,-13.18 -148.75,7.53 -12.44,25.57 28.32,85.71 38.39,106.62 13.02,26.98 26.88,53.67 41.28,79.96 2.95,5.38 -10.71,9.58 -13.17,5.04" />
                <path
                   inkscape:connector-curvature="0"
                   id="path1544"
                   style="fill:#e46c7f;fill-opacity:1;fill-rule:nonzero;stroke:none"
                   d="m 7038.4092,7477.0264 c -11.61,-18.67 -22.24,-37.94 -32.25,-57.47 -10.22,-19.96 -34.26,-57.33 -23.21,-81.63 7.52,-16.59 52.22,-12.82 65.29,-13.01 32.91,-0.44 65.83,1.66 98.32,4.48 7.27,0.64 -5.71,6.32 -9.28,6 -22.22,-1.95 -44.59,-3.13 -66.97,-3.89 -17.47,-0.58 -35.06,-0.64 -52.65,0.5 -18.5,1.18 -24.47,5.05 -21.94,21.97 6.26,41.92 34.14,83.38 55.98,118.66 2.34,3.73 -11.38,7.52 -13.29,4.39" />
                <path
                   inkscape:connector-curvature="0"
                   id="path1546"
                   style="fill:#5d535e;fill-opacity:1;fill-rule:nonzero;stroke:none"
                   d="m 3501.6152,6608.9164 c 0,0 734.258,-142.79 1678.724,-603.02 0,0 -431.48,323.93 -1289.649,603.02 h -389.075" />
                <path
                   inkscape:connector-curvature="0"
                   id="path1548"
                   style="fill:#ec96a4;fill-opacity:1;fill-rule:nonzero;stroke:none"
                   d="m 4964.5192,6113.3464 c 0,0 436.94,316.41 767.84,-354.63 0,0 -626.74,-280.73 -767.84,354.63" />
                <path
                   inkscape:connector-curvature="0"
                   id="path1550"
                   style="fill:#e46c7f;fill-opacity:1;fill-rule:nonzero;stroke:none"
                   d="m 4988.7292,6106.1264 c 93.42,-56.22 188.52,-109.25 284.33,-160.15 78.49,-41.75 157.86,-81.54 238.76,-116.94 60.94,-26.67 125.45,-54.28 190.57,-62.13 1.72,-0.2 -2.63,11.49 -5.73,11.88 -62.3,7.49 -123.6,33.52 -182.12,58.48 -80.94,34.47 -160.09,74.67 -238.48,115.96 -98.4,51.85 -195.91,106.37 -291.73,163.99 -2.85,1.72 1.98,-9.63 4.4,-11.09" />
                <path
                   inkscape:connector-curvature="0"
                   id="path1552"
                   style="fill:#e46c7f;fill-opacity:1;fill-rule:nonzero;stroke:none"
                   d="m 5223.6192,6133.2364 c -31.75,-5.44 -63.27,-11.91 -94.63,-19.17 -17.88,-4.1 -80.86,-10.88 -86.81,-33.33 -7.87,-29.63 17.8,-77.6 28.85,-103.6 23.17,-54.48 52.92,-107.66 91.47,-151.51 5.79,-6.54 4.12,5.28 1.05,8.75 -25.97,29.55 -154.57,220.11 -98.97,246.67 49.68,23.72 110.2,30.68 164.13,39.91 4.66,0.83 -1.2,12.96 -5.09,12.28" />
                <path
                   inkscape:connector-curvature="0"
                   id="path1554"
                   style="fill:#e46c7f;fill-opacity:1;fill-rule:nonzero;stroke:none"
                   d="m 5406.3292,6083.6364 c -42.22,-8.14 -84.28,-17.23 -126.12,-27.13 -33.86,-8.05 -98.81,-13.15 -123.52,-42.46 -15.73,-18.66 38.56,-90.83 47.01,-103.19 41.51,-60.76 93.4,-127.05 159.74,-155.54 7.26,-3.16 5.48,9.32 0.32,11.52 -59,25.38 -104.73,81.59 -143.3,134.7 -17.01,23.5 -32.48,48.44 -45.76,74.51 -10.7,21.05 -13.15,28.79 6.9,37.75 70.67,31.58 153.65,42.69 229.3,57.23 6.08,1.17 0.72,13.58 -4.57,12.61" />
                <path
                   inkscape:connector-curvature="0"
                   id="path1556"
                   style="fill:#e46c7f;fill-opacity:1;fill-rule:nonzero;stroke:none"
                   d="m 5509.6792,5992.3364 c -27.07,-6.18 -194.63,-33.98 -186.05,-73.99 8.35,-38.7 55.86,-78.23 80.91,-104.53 32.97,-34.55 75.01,-82.23 120.17,-96.69 6.19,-2.03 2.09,10.8 -2.48,12.26 -38.06,12.17 -72.76,51.27 -101.51,79.68 -10.72,10.59 -96.46,89.64 -88.18,109.79 10.24,24.86 78.33,33.88 99.43,39.9 27.25,7.77 54.8,14.75 82.43,21.1 5.66,1.31 0.02,13.59 -4.72,12.48" />
                <path
                   inkscape:connector-curvature="0"
                   id="path1558"
                   style="fill:#e46c7f;fill-opacity:1;fill-rule:nonzero;stroke:none"
                   d="m 5618.5692,5903.6064 c -20.49,-3.54 -40.78,-8.14 -60.87,-13.35 -20.52,-5.33 -62.02,-11.84 -72.24,-34.92 -6.98,-15.73 23.77,-44.94 31.86,-54.29 20.37,-23.51 42.54,-45.46 64.95,-66.61 5.03,-4.75 0.88,8 -1.59,10.32 -15.35,14.47 -30.23,29.51 -44.85,44.85 -11.37,11.97 -22.48,24.37 -32.73,37.5 -10.8,13.8 -11.82,20.46 1.72,29.29 33.55,21.94 80.35,28.32 119.01,35.07 4.09,0.68 -1.85,12.76 -5.26,12.14" />
                <path
                   inkscape:connector-curvature="0"
                   id="path1560"
                   style="fill:#5d535e;fill-opacity:1;fill-rule:nonzero;stroke:none"
                   d="m 4395.6822,6416.0064 c 0,0 164.183,70.44 433.147,41.67 0,0 -246.151,-10.81 -367.339,-79.9 l -65.808,38.23" />
                <path
                   inkscape:connector-curvature="0"
                   id="path1562"
                   style="fill:#ec96a4;fill-opacity:1;fill-rule:nonzero;stroke:none"
                   d="m 4690.5092,6452.3864 c 0,0 108.94,244.16 417.4,38.4 0,0 -199.21,-275.94 -417.4,-38.4" />
                <path
                   inkscape:connector-curvature="0"
                   id="path1564"
                   style="fill:#e46c7f;fill-opacity:1;fill-rule:nonzero;stroke:none"
                   d="m 4702.6892,6455.2964 c 54.04,-0.94 107.99,-0.09 161.72,1.85 44.02,1.57 87.95,4.17 131.44,9.08 32.76,3.68 67.29,7.84 97.17,20.63 0.8,0.34 -3.97,4.27 -5.4,3.67 -28.59,-12.25 -61.34,-16.28 -92.64,-20.09 -43.28,-5.3 -87.2,-7.7 -131.08,-9.43 -55.08,-2.18 -110.45,-2.98 -165.85,-2.04 -1.64,0.03 3.25,-3.65 4.64,-3.67" />
                <path
                   inkscape:connector-curvature="0"
                   id="path1566"
                   style="fill:#e46c7f;fill-opacity:1;fill-rule:nonzero;stroke:none"
                   d="m 4796.7292,6525.2164 c -12.27,-10.21 -24.18,-20.81 -35.84,-31.71 -6.65,-6.19 -31.99,-24.72 -28.97,-35.84 3.98,-14.66 26.9,-28.87 38.09,-37.29 23.45,-17.61 49.42,-33.05 76.83,-42.29 4.1,-1.38 0.46,3.28 -1.73,4.01 -18.47,6.22 -120.91,56.07 -103.65,81.26 15.42,22.5 39.66,40.5 60.5,57.85 1.8,1.51 -3.73,5.26 -5.23,4.01" />
                <path
                   inkscape:connector-curvature="0"
                   id="path1568"
                   style="fill:#e46c7f;fill-opacity:1;fill-rule:nonzero;stroke:none"
                   d="m 4887.4192,6549.2664 c -16.08,-13.96 -31.88,-28.3 -47.37,-42.93 -12.52,-11.85 -39.12,-30.16 -42.46,-48.87 -2.11,-11.9 39.08,-29.39 45.78,-32.61 32.88,-15.75 71.58,-31.32 107.12,-27.08 3.9,0.44 0.03,5.37 -2.72,5.02 -31.62,-3.75 -65.18,9.02 -94.9,22.24 -13.13,5.85 -25.96,12.72 -38.12,20.6 -9.81,6.38 -12.79,9.09 -6.4,17.91 22.47,31.09 55.31,56.44 84.16,81.45 2.32,2.01 -3.06,6 -5.09,4.27" />
                <path
                   inkscape:connector-curvature="0"
                   id="path1570"
                   style="fill:#e46c7f;fill-opacity:1;fill-rule:nonzero;stroke:none"
                   d="m 4954.4092,6535.7464 c -10.08,-9.37 -75.06,-62.87 -61.45,-77.9 13.18,-14.53 43.38,-19.7 60.65,-24.77 22.71,-6.64 52.58,-16.67 75.54,-11.66 3.16,0.66 -1.78,5.15 -4.1,4.64 -19.35,-4.22 -43.94,3.94 -63.32,9 -7.23,1.88 -63.63,14.52 -65.07,25.22 -1.78,13.2 25.2,33.96 32.75,41.79 9.76,10.09 19.85,19.91 30.12,29.49 2.1,1.97 -3.37,5.84 -5.12,4.19" />
                <path
                   inkscape:connector-curvature="0"
                   id="path1572"
                   style="fill:#e46c7f;fill-opacity:1;fill-rule:nonzero;stroke:none"
                   d="m 5023.1392,6524.6964 c -7.9,-6.6 -15.47,-13.61 -22.8,-20.83 -7.48,-7.36 -23.67,-20.47 -22.32,-32.9 0.91,-8.48 21.34,-13.38 27.14,-15.39 14.57,-5.03 29.52,-8.94 44.39,-12.46 3.33,-0.78 -1.61,3.65 -3.25,4.04 -10.17,2.4 -20.29,5.16 -30.36,8.11 -7.86,2.32 -15.7,4.87 -23.35,7.96 -8.06,3.26 -10.15,5.84 -6.53,13.01 8.95,17.73 27.44,32.07 42.35,44.56 1.58,1.31 -3.96,5.02 -5.27,3.9" />
                <path
                   inkscape:connector-curvature="0"
                   id="path1574"
                   style="fill:#5d535e;fill-opacity:1;fill-rule:nonzero;stroke:none"
                   d="m 5645.1592,6820.0764 c 0,0 343.27,-25.36 586.18,-250.65 0,0 -177.05,261.46 -438.51,294.55 l -147.67,-43.9" />
                <path
                   inkscape:connector-curvature="0"
                   id="path1576"
                   style="fill:#ec96a4;fill-opacity:1;fill-rule:nonzero;stroke:none"
                   d="m 6141.1892,6659.0364 c 0,0 237.45,46.61 259.52,-262.89 0,0 -310.61,-1.32 -259.52,262.89" />
                <path
                   inkscape:connector-curvature="0"
                   id="path1578"
                   style="fill:#e46c7f;fill-opacity:1;fill-rule:nonzero;stroke:none"
                   d="m 6150.0492,6652.2564 c 29.32,-36.94 59.87,-72.96 91.11,-108.28 25.56,-28.95 51.85,-57.32 79.54,-84.27 20.86,-20.29 43.04,-41.56 68.89,-55.45 0.7,-0.35 0.9,4.79 -0.33,5.47 -24.75,13.27 -45.85,33.39 -65.99,52.65 -27.85,26.61 -53.99,55.08 -79.61,83.84 -32.13,36.12 -63.45,73.09 -93.51,110.96 -0.9,1.13 -0.85,-3.99 -0.1,-4.92" />
                <path
                   inkscape:connector-curvature="0"
                   id="path1580"
                   style="fill:#e46c7f;fill-opacity:1;fill-rule:nonzero;stroke:none"
                   d="m 6252.9392,6623.1764 c -14.21,3.25 -28.52,6.08 -42.87,8.58 -8.2,1.44 -35.69,9.42 -42.07,1.92 -8.42,-9.9 -6,-32.36 -5.89,-44.06 0.25,-24.51 3.48,-49.62 11.99,-72.69 1.27,-3.44 2.64,1.32 1.95,3.14 -5.74,15.55 -26.48,109.23 1.37,109.97 24.87,0.66 51.37,-6.84 75.53,-12.36 2.09,-0.49 1.73,5.1 -0.01,5.5" />
                <path
                   inkscape:connector-curvature="0"
                   id="path1582"
                   style="fill:#e46c7f;fill-opacity:1;fill-rule:nonzero;stroke:none"
                   d="m 6320.7192,6573.7864 c -19.06,4 -38.22,7.58 -57.42,10.85 -15.54,2.62 -43.58,11.57 -58.98,4.62 -9.81,-4.44 0.37,-40.87 1.76,-46.96 6.84,-29.95 17.04,-63.74 39.83,-85.64 2.49,-2.42 3.91,2.61 2.13,4.3 -20.28,19.5 -29.63,48.44 -36.56,75.01 -3.04,11.74 -5.19,23.78 -6.22,35.87 -0.82,9.77 -0.52,13.11 9.43,13.14 35,0.12 71.61,-9.57 105.75,-16.73 2.75,-0.58 2.65,5.02 0.28,5.54" />
                <path
                   inkscape:connector-curvature="0"
                   id="path1584"
                   style="fill:#e46c7f;fill-opacity:1;fill-rule:nonzero;stroke:none"
                   d="m 6348.0892,6521.8964 c -12.37,2.19 -87.23,19.74 -90.58,3.15 -3.22,-16.06 9.79,-38.97 15.71,-53.12 7.8,-18.61 17.11,-43.72 33.47,-56.75 2.25,-1.8 2.76,3.75 1.1,5.06 -13.79,10.99 -21.53,31.59 -28.62,47.17 -2.63,5.8 -24.8,50.09 -17.84,56.34 8.59,7.68 38.62,-0.29 48.46,-1.55 12.75,-1.62 25.48,-3.59 38.12,-5.81 2.59,-0.45 2.36,5.14 0.18,5.51" />
                <path
                   inkscape:connector-curvature="0"
                   id="path1586"
                   style="fill:#e46c7f;fill-opacity:1;fill-rule:nonzero;stroke:none"
                   d="m 6378.2392,6470.0664 c -9.18,2.09 -18.46,3.75 -27.75,5.14 -9.5,1.41 -27.97,5.9 -36.24,-1.12 -5.65,-4.79 2.15,-21 3.9,-25.89 4.44,-12.31 9.91,-24.34 15.62,-36.11 1.28,-2.64 1.74,2.89 1.11,4.18 -3.9,8.04 -7.51,16.23 -10.96,24.49 -2.69,6.44 -5.19,12.99 -7.2,19.69 -2.12,7.03 -1.4,9.71 5.8,10.81 17.82,2.67 38.48,-2.75 55.81,-6.67 1.84,-0.42 1.45,5.14 -0.09,5.48" />
                <path
                   inkscape:connector-curvature="0"
                   id="path1588"
                   style="fill:#5d535e;fill-opacity:1;fill-rule:nonzero;stroke:none"
                   d="m 4036.0452,6478.1064 c 0,0 287.508,-254.7 304.934,-625.45 0,0 25.515,362.81 -168.7,580.93 l -136.234,44.52" />
                <path
                   inkscape:connector-curvature="0"
                   id="path1590"
                   style="fill:#ec96a4;fill-opacity:1;fill-rule:nonzero;stroke:none"
                   d="m 4315.0962,6057.0364 c 0,0 290.801,-125.14 85.91,-475.6 0,0 -336.32,228.09 -85.91,475.6" />
                <path
                   inkscape:connector-curvature="0"
                   id="path1592"
                   style="fill:#e46c7f;fill-opacity:1;fill-rule:nonzero;stroke:none"
                   d="m 4319.6352,6043.1564 c 4.352,-61.55 10.73,-123.01 18.344,-184.22 6.226,-50.15 13.648,-100.21 23.613,-149.76 7.535,-37.33 15.762,-76.68 33.41,-110.77 0.477,-0.9 4.508,4.51 3.68,6.15 -16.914,32.61 -24.832,69.93 -32.332,105.6 -10.422,49.3 -17.59,99.36 -23.996,149.34 -8.012,62.75 -14.492,125.81 -18.973,188.9 -0.137,1.89 -3.863,-3.67 -3.746,-5.24" />
                <path
                   inkscape:connector-curvature="0"
                   id="path1594"
                   style="fill:#e46c7f;fill-opacity:1;fill-rule:nonzero;stroke:none"
                   d="m 4409.2292,5935.7364 c -12.938,14 -26.293,27.65 -39.938,40.94 -7.793,7.62 -31.57,36.55 -44.008,33.16 -16.406,-4.47 -30.382,-30.5 -38.914,-43.22 -17.847,-26.64 -32.922,-56.14 -40.773,-87.34 -1.16,-4.65 3.824,-0.52 4.433,1.96 5.29,21.01 52.125,137.49 82.735,117.71 27.34,-17.65 50.41,-45.34 72.406,-69.16 1.906,-2.06 5.641,4.24 4.059,5.95" />
                <path
                   inkscape:connector-curvature="0"
                   id="path1596"
                   style="fill:#e46c7f;fill-opacity:1;fill-rule:nonzero;stroke:none"
                   d="m 4445.9122,5832.3264 c -17.625,18.4 -35.664,36.42 -53.972,54.15 -14.844,14.32 -38.5,44.67 -60.278,48.57 -13.867,2.45 -29.781,-44.4 -32.785,-52.01 -14.754,-37.39 -28.699,-81.41 -20.281,-121.9 0.902,-4.44 6.144,-0.06 5.476,3.08 -7.484,36.04 3.805,74.19 15.954,107.99 5.394,14.93 11.968,29.53 19.785,43.33 6.332,11.17 9.136,14.54 19.898,7.22 37.887,-25.73 70.238,-63.26 101.801,-96.2 2.539,-2.65 6.578,3.46 4.402,5.77" />
                <path
                   inkscape:connector-curvature="0"
                   id="path1598"
                   style="fill:#e46c7f;fill-opacity:1;fill-rule:nonzero;stroke:none"
                   d="m 4437.1192,5756.0864 c -11.73,11.51 -79.59,85.77 -95.468,70.33 -15.329,-14.96 -18.223,-49.32 -22.286,-68.98 -5.332,-25.85 -13.832,-59.82 -5.8,-85.99 1.093,-3.61 5.738,2.02 4.918,4.66 -6.762,22.06 0.101,50.01 3.957,72.08 1.453,8.21 10.261,72.4 22.379,74.01 14.96,1.95 41.476,-28.86 51.179,-37.49 12.563,-11.17 24.852,-22.7 36.86,-34.44 2.457,-2.4 6.336,3.81 4.261,5.82" />
                <path
                   inkscape:connector-curvature="0"
                   id="path1600"
                   style="fill:#e46c7f;fill-opacity:1;fill-rule:nonzero;stroke:none"
                   d="m 4431.3692,5677.8364 c -8.351,9.05 -17.152,17.69 -26.164,26.06 -9.207,8.54 -25.836,27.05 -39.961,25.58 -9.629,-0.99 -13.175,-24.27 -14.906,-30.85 -4.309,-16.57 -7.281,-33.6 -9.82,-50.52 -0.567,-3.79 4.023,1.82 4.293,3.68 1.734,11.58 3.883,23.09 6.265,34.56 1.852,8.94 3.989,17.85 6.758,26.56 2.914,9.16 5.68,11.53 14.262,7.39 21.211,-10.28 39.516,-31.4 55.328,-48.43 1.668,-1.81 5.359,4.48 3.945,5.97" />
                <path
                   inkscape:connector-curvature="0"
                   id="path1602"
                   style="fill:#5d535e;fill-opacity:1;fill-rule:nonzero;stroke:none"
                   d="m 4128.0372,6377.8264 c 0,0 -11.625,-116.32 -91.992,-212.44 0,0 79.453,65.05 128.988,163.45 l -36.996,48.99" />
                <path
                   inkscape:connector-curvature="0"
                   id="path1604"
                   style="fill:#ec96a4;fill-opacity:1;fill-rule:nonzero;stroke:none"
                   d="m 4094.3152,6234.4464 c 0,0 119.324,-206.26 -161.887,-325.74 0,0 -100.531,288.86 161.887,325.74" />
                <path
                   inkscape:connector-curvature="0"
                   id="path1606"
                   style="fill:#e46c7f;fill-opacity:1;fill-rule:nonzero;stroke:none"
                   d="m 4090.8222,6224.0264 c -25.031,-39.11 -48.804,-79.08 -71.73,-119.48 -18.773,-33.06 -36.801,-66.61 -53.047,-101.02 -12.234,-25.92 -24.957,-53.37 -29.625,-81.89 -0.109,-0.75 4.758,0.7 4.996,2.06 4.446,27.3 16.434,53.38 27.938,78.29 15.863,34.45 34.05,67.89 52.644,100.95 23.36,41.48 47.789,82.47 73.438,122.57 0.761,1.21 -3.985,-0.48 -4.614,-1.48" />
                <path
                   inkscape:connector-curvature="0"
                   id="path1608"
                   style="fill:#e46c7f;fill-opacity:1;fill-rule:nonzero;stroke:none"
                   d="m 4096.6272,6118.9164 c -1.508,14.26 -3.441,28.5 -5.707,42.66 -1.269,8.1 -2.633,36.25 -11.66,39.8 -11.914,4.68 -32.059,-4.76 -42.922,-8.6 -22.746,-8.08 -45.109,-19.11 -63.871,-34.41 -2.793,-2.28 2.07,-2.03 3.555,-0.81 12.64,10.31 93.261,59.58 102.863,33.88 8.562,-22.96 10.047,-50.03 12.625,-74.3 0.219,-2.09 5.309,0.02 5.117,1.78" />
                <path
                   inkscape:connector-curvature="0"
                   id="path1610"
                   style="fill:#e46c7f;fill-opacity:1;fill-rule:nonzero;stroke:none"
                   d="m 4072.2952,6039.9764 c -2.355,19.05 -5.148,38.03 -8.246,56.96 -2.523,15.31 -3.164,44.28 -14.562,56.41 -7.262,7.71 -37.934,-13.42 -43.165,-16.64 -25.726,-15.96 -53.918,-36.26 -67.035,-64.5 -1.449,-3.08 3.684,-2.8 4.696,-0.6 11.671,25.12 35.632,43.08 58.171,58.03 9.965,6.58 20.493,12.45 31.415,17.27 8.843,3.89 12.046,4.66 15.25,-4.58 11.308,-32.57 13.996,-69.77 18.234,-103.85 0.34,-2.75 5.527,-0.87 5.242,1.5" />
                <path
                   inkscape:connector-curvature="0"
                   id="path1612"
                   style="fill:#e46c7f;fill-opacity:1;fill-rule:nonzero;stroke:none"
                   d="m 4032.7252,5997.9064 c -1.906,12.22 -9.5,87.56 -26.031,85.36 -15.973,-2.13 -33.165,-21.58 -44.446,-31.62 -14.84,-13.21 -35.246,-29.9 -42.152,-49.3 -0.969,-2.67 4.363,-1.37 5.051,0.59 5.836,16.35 22.554,30.16 34.793,41.74 4.57,4.32 38.734,39.11 46.769,34.63 9.914,-5.55 12.067,-36.06 14.055,-45.64 2.562,-12.39 4.801,-24.87 6.769,-37.36 0.407,-2.54 5.539,-0.54 5.192,1.6" />
                <path
                   inkscape:connector-curvature="0"
                   id="path1614"
                   style="fill:#e46c7f;fill-opacity:1;fill-rule:nonzero;stroke:none"
                   d="m 3994.0882,5953.2564 c -0.98,9.21 -2.41,18.39 -4.082,27.48 -1.734,9.31 -3.445,27.95 -12.637,33.41 -6.254,3.73 -18.871,-8.72 -22.867,-11.92 -10.047,-8.07 -19.496,-17.02 -28.621,-26.09 -2.062,-2.03 3.242,-0.7 4.238,0.29 6.243,6.22 12.719,12.19 19.313,18.05 5.137,4.57 10.437,8.99 16.012,13 5.878,4.23 8.621,4.4 11.941,-1.95 8.184,-15.73 9.734,-36.72 11.625,-54.11 0.199,-1.84 5.258,0.3 5.078,1.84" />
                <path
                   inkscape:connector-curvature="0"
                   id="path1730"
                   style="fill:#5d535e;fill-opacity:0.99117647;fill-rule:nonzero;stroke:none"
                   d="m 3636.5492,734.92837 c 0,0 476.176,-226.2112 2020.25,218.218 0,0 -404.17,-373.05 -1274.156,-513.73 l -1140.0535,7.57614 v 401.57802" />
                <path
                   inkscape:connector-curvature="0"
                   id="path1732"
                   style="fill:#5d535e;fill-opacity:0.99117647;fill-rule:nonzero;stroke:none"
                   d="m 4133.4982,677.97537 c 0,0 278.051,78.902 418.051,275.171 0,0 25.945,-195.171 -260,-303.73 l -158.051,28.559" />
                <path
                   inkscape:connector-curvature="0"
                   id="path1734"
                   style="fill:#ec96a4;fill-opacity:1;fill-rule:nonzero;stroke:none"
                   d="m 4502.5652,837.13537 c 0,0 -150.836,179.13303 100.808,343.01103 0,0 146.836,-262.32003 -100.808,-343.01103" />
                <path
                   inkscape:connector-curvature="0"
                   id="path1736"
                   style="fill:#e46c7f;fill-opacity:1;fill-rule:nonzero;stroke:none"
                   d="m 4504.1622,847.81437 c 17.528,42.141 33.688,84.911 48.942,127.911 12.508,35.24203 24.191,70.80003 33.996,106.86303 7.414,27.199 15.015,55.949 14.629,84.348 -0.024,0.761 -4.477,-1.5 -4.465,-2.852 0.375,-27.176 -6.774,-54.469 -13.621,-80.547 -9.461,-36.062 -21.297,-71.57 -33.637,-106.74203 -15.504,-44.141 -32.105,-87.988 -50.055,-131.199 -0.527,-1.301 3.77,1.129 4.211,2.218" />
                <path
                   inkscape:connector-curvature="0"
                   id="path1738"
                   style="fill:#e46c7f;fill-opacity:1;fill-rule:nonzero;stroke:none"
                   d="m 4480.5182,948.56437 c 3.922,-13.57 8.219,-27.007 12.847,-40.328 2.622,-7.621 8.758,-34.629 18.094,-36.511 12.348,-2.489 30.211,10.101 40.094,15.66 20.605,11.742 40.351,26.242 55.894,44.261 2.305,2.711 -2.347,1.622 -3.562,0.18 -10.481,-12.129 -80.055,-73.64 -93.762,-50.41 -12.219,20.73 -18.281,46.691 -24.953,69.719 -0.574,2 -5.137,-0.93 -4.652,-2.571" />
                <path
                   inkscape:connector-curvature="0"
                   id="path1740"
                   style="fill:#e46c7f;fill-opacity:1;fill-rule:nonzero;stroke:none"
                   d="m 4490.5292,1029.1074 c 5.551,-18.011 11.504,-35.92103 17.75,-53.70303 5.09,-14.398 10.653,-42.308 23.754,-52.097 8.371,-6.219 34.426,19.488 38.93,23.519 22.172,19.828 45.973,44.309 53.809,73.87903 0.875,3.262 -4.035,2.102 -4.645,-0.187 -6.973,-26.32103 -27.101,-47.81303 -46.328,-66.15303 -8.539,-8.07 -17.687,-15.57 -27.445,-22.097 -7.887,-5.301 -10.864,-6.582 -15.559,1.828 -16.527,29.558 -25.476,65.109 -35.43,97.37103 -0.82,2.597 -5.5,-0.11 -4.836,-2.36" />
                <path
                   inkscape:connector-curvature="0"
                   id="path1742"
                   style="fill:#e46c7f;fill-opacity:1;fill-rule:nonzero;stroke:none"
                   d="m 4521.6152,1076.6154 c 3.942,-11.508 24.215,-83.11703 39.836,-78.16003 15.086,4.81303 28.375,26.58203 37.602,38.22303 12.082,15.347 28.965,34.988 32.332,54.949 0.469,2.758 -4.465,0.578 -4.809,-1.43 -2.832,-16.84 -16.636,-33.051 -26.504,-46.359 -3.668,-4.961 -30.769,-44.50003 -39.324,-41.551 -10.539,3.68 -17.875,32.84 -21.426,41.758 -4.605,11.562 -8.91,23.25 -12.964,34.992 -0.829,2.418 -5.45,-0.41 -4.743,-2.422" />
                <path
                   inkscape:connector-curvature="0"
                   id="path1744"
                   style="fill:#e46c7f;fill-opacity:1;fill-rule:nonzero;stroke:none"
                   d="m 4551.3622,1126.4554 c 2.507,-8.75 5.468,-17.398 8.64,-25.898 3.277,-8.711 8.133,-26.461 17.965,-30.172 6.703,-2.528 16.762,11.672 20.082,15.461 8.355,9.531 15.941,19.82 23.234,30.172 1.645,2.296 -3.265,0.117 -4.066,-1.024 -4.961,-7.098 -10.207,-13.976 -15.578,-20.777 -4.176,-5.313 -8.567,-10.492 -13.281,-15.34 -4.961,-5.09 -7.586,-5.719 -11.875,-0.152 -10.621,13.839 -15.735,33.863 -20.539,50.382 -0.504,1.75 -5.032,-1.191 -4.582,-2.652" />
                <path
                   inkscape:connector-curvature="0"
                   id="path1746"
                   style="fill:#ec96a4;fill-opacity:1;fill-rule:nonzero;stroke:none"
                   d="m 5414.7892,830.07637 c 0,0 7.47,550.11003 706.46,454.30903 0,0 -142.49,-691.75003 -706.46,-454.30903" />
                <path
                   inkscape:connector-curvature="0"
                   id="path1748"
                   style="fill:#e46c7f;fill-opacity:1;fill-rule:nonzero;stroke:none"
                   d="m 5434.0492,846.61537 c 95.92,47.879 190.39,99.012 283.59,151.949 76.4,43.37203 151.83,88.56303 224.71,137.55103 54.96,36.91 112.68,76.281 155.66,127.352 1.13,1.371 -10.25,4.219 -12.31,1.801 -41.13,-48.872 -95.78,-86.34 -148.06,-122.172 -72.23,-49.5 -147.84,-94.352 -223.86,-137.871 -95.4,-54.59003 -192.31,-106.93803 -290.64,-156.11803 -2.93,-1.5 8.46,-3.781 10.91,-2.492" />
                <path
                   inkscape:connector-curvature="0"
                   id="path1750"
                   style="fill:#e46c7f;fill-opacity:1;fill-rule:nonzero;stroke:none"
                   d="m 5546.9392,1061.8854 c -13.89,-30.117 -26.9,-60.578 -39.17,-91.36003 -7.07,-17.578 -37.69,-75.019 -24,-92.679 18.1,-23.41 69.19,-28.508 95.3,-33.809 54.65,-10.851 112.04,-15.43 167.35,-7.32 8.26,1.25 -1.69,6.469 -6.08,5.789 -37.26,-5.461 -255.42,-7.738 -244.05,54.59 10.18,55.629 39.3,111.03903 62.88,162.21103 2.04,4.437 -10.56,6.269 -12.23,2.578" />
                <path
                   inkscape:connector-curvature="0"
                   id="path1752"
                   style="fill:#e46c7f;fill-opacity:1;fill-rule:nonzero;stroke:none"
                   d="m 5688.5692,1189.5884 c -17.85,-40.551 -34.78,-81.481 -51.03,-122.672 -13.11,-33.41 -46.14,-91.55103 -37.91,-129.08203 5.3,-23.93 91.11,-18.309 105.31,-18.066 69.88,1.136 149.78,8.027 209.2,48.507 6.54,4.422 -3.94,9.93 -8.56,6.801 -52.87,-36.039 -121.68,-43.281 -184.02,-46.289 -27.56,-1.223 -55.35,-0.449 -82.72,2.949 -22.15,2.711 -29.41,5.02 -24.81,27.168 16.09,77.93403 54.84,154.85203 86.75,227.44203 2.56,5.879 -9.94,8.269 -12.21,3.242" />
                <path
                   inkscape:connector-curvature="0"
                   id="path1754"
                   style="fill:#e46c7f;fill-opacity:1;fill-rule:nonzero;stroke:none"
                   d="m 5816.8292,1226.1864 c -10.7,-26.508 -84.77,-184.879 -49.42,-200.079 34.22,-14.64 91.29,3.579 125.58,10.079 45.04,8.679 105.25,17.609 141.91,47.89 5.06,4.18 -7.04,7.91 -10.75,4.84 -30.91,-25.539 -80.36,-33.121 -118.35,-41.59 -14.15,-3.172 -123.08,-31.73 -133.73,-13.328 -13.06,22.738 18.73,85.809 26.15,107.129 9.58,27.59 19.89,54.969 30.77,82.09 2.22,5.527 -10.32,7.629 -12.16,2.969" />
                <path
                   inkscape:connector-curvature="0"
                   id="path1756"
                   style="fill:#e46c7f;fill-opacity:1;fill-rule:nonzero;stroke:none"
                   d="m 5946.2992,1268.9984 c -9,-19.402 -17.03,-39.312 -24.48,-59.312 -7.56,-20.489 -26.22,-59.489 -14.46,-81.2 8.02,-14.8 47.73,-5.039 59.44,-3.41 29.5,4.078 58.77,10.68 87.66,17.84 6.47,1.602 -5.62,5.25 -8.79,4.449 -19.73,-4.969 -39.64,-9.148 -59.62,-12.937 -15.59,-3.032 -31.35,-5.461 -47.18,-6.813 -16.64,-1.437 -22.28,1.442 -21.33,17.961 2.41,40.93 24.13,84.34 40.97,121.059 1.79,3.89 -10.75,5.633 -12.21,2.363" />
                <path
                   inkscape:connector-curvature="0"
                   id="path1858"
                   style="fill:#5d535e;fill-opacity:1;fill-rule:nonzero;stroke:none"
                   d="m 3403.3652,3260.5564 c 0,0 648.954,73.49 1556.394,-299.24 907.42,-372.72 1618.91,-761.92 2618.11,-683.6 0,0 -929.79,-296.58 -1929.32,79.2 -748.67,281.47 -1505.6815,608.1232 -2410.4585,549.6132 l 6.1754,354.0268" />
                <path
                   inkscape:connector-curvature="0"
                   id="path1860"
                   style="fill:#5d535e;fill-opacity:1;fill-rule:nonzero;stroke:none"
                   d="m 5211.6792,2855.8164 c 0,0 401.69,-53.51 689.55,111.35 0,0 -205.55,-151.54 -504.25,-190.32 l -185.3,78.97" />
                <path
                   inkscape:connector-curvature="0"
                   id="path1862"
                   style="fill:#ec96a4;fill-opacity:1;fill-rule:nonzero;stroke:none"
                   d="m 5744.3492,2883.1064 c 0,0 3.7,212.48 314.89,175.07 0,0 -63.92,-267.1 -314.89,-175.07" />
                <path
                   inkscape:connector-curvature="0"
                   id="path1864"
                   style="fill:#e46c7f;fill-opacity:1;fill-rule:nonzero;stroke:none"
                   d="m 5752.9292,2889.4864 c 42.75,18.44 84.85,38.12 126.39,58.52 34.04,16.71 67.66,34.12 100.16,52.99 24.49,14.24 50.22,29.41 69.4,49.11 0.5,0.53 -4.56,1.63 -5.48,0.7 -18.36,-18.85 -42.71,-33.31 -66.02,-47.1 -32.2,-19.09 -65.9,-36.35 -99.77,-53.12 -42.52,-21.05 -85.72,-41.2 -129.54,-60.12 -1.3,-0.6 3.77,-1.47 4.86,-0.98" />
                <path
                   inkscape:connector-curvature="0"
                   id="path1866"
                   style="fill:#e46c7f;fill-opacity:1;fill-rule:nonzero;stroke:none"
                   d="m 5803.3492,2972.5564 c -6.2,-11.62 -12.02,-23.38 -17.5,-35.25 -3.16,-6.78 -16.83,-28.96 -10.76,-35.79 8.06,-9.07 30.81,-11.05 42.43,-13.11 24.31,-4.23 49.88,-6.03 74.51,-2.93 3.68,0.48 -0.76,2.5 -2.71,2.24 -16.59,-2.08 -113.75,-2.83 -108.64,21.23 4.58,21.48 17.57,42.89 28.12,62.62 0.9,1.7 -4.7,2.42 -5.45,0.99" />
                <path
                   inkscape:connector-curvature="0"
                   id="path1868"
                   style="fill:#e46c7f;fill-opacity:1;fill-rule:nonzero;stroke:none"
                   d="m 5866.5092,3021.8164 c -7.98,-15.66 -15.54,-31.47 -22.81,-47.38 -5.87,-12.87 -20.62,-35.32 -16.96,-49.8 2.33,-9.26 40.55,-7.14 46.88,-7.05 31.1,0.41 66.69,3.02 93.18,18.6 2.91,1.71 -1.76,3.85 -3.8,2.64 -23.58,-13.89 -54.22,-16.65 -81.98,-17.75 -12.28,-0.48 -24.66,-0.15 -36.84,1.17 -9.85,1.07 -13.09,1.95 -11.02,10.51 7.21,30.09 24.51,59.76 38.78,87.8 1.14,2.25 -4.43,3.18 -5.43,1.26" />
                <path
                   inkscape:connector-curvature="0"
                   id="path1870"
                   style="fill:#e46c7f;fill-opacity:1;fill-rule:nonzero;stroke:none"
                   d="m 5923.6392,3035.8764 c -4.77,-10.23 -37.86,-71.37 -22.14,-77.27 15.23,-5.66 40.66,1.34 55.92,3.82 20.08,3.34 46.89,6.75 63.23,18.44 2.26,1.59 -3.13,3.04 -4.78,1.87 -13.78,-9.85 -35.81,-12.76 -52.73,-16 -6.31,-1.21 -54.83,-12.18 -59.55,-5.08 -5.81,8.79 8.39,33.14 11.7,41.38 4.29,10.64 8.91,21.21 13.77,31.68 0.99,2.13 -4.59,2.97 -5.42,1.16" />
                <path
                   inkscape:connector-curvature="0"
                   id="path1872"
                   style="fill:#e46c7f;fill-opacity:1;fill-rule:nonzero;stroke:none"
                   d="m 5981.3192,3052.3364 c -4.01,-7.5 -7.61,-15.18 -10.93,-22.9 -3.39,-7.92 -11.72,-22.96 -6.51,-31.36 3.57,-5.72 21.26,-1.97 26.47,-1.35 13.14,1.56 26.19,4.09 39.05,6.84 2.88,0.61 -2.5,2.03 -3.9,1.71 -8.79,-1.88 -17.67,-3.49 -26.57,-4.96 -6.94,-1.14 -13.96,-2.09 -21,-2.58 -7.42,-0.56 -9.93,0.56 -9.5,6.94 1.1,15.79 10.81,32.56 18.33,46.74 0.8,1.48 -4.78,2.19 -5.44,0.92" />
                <path
                   inkscape:connector-curvature="0"
                   id="path1874"
                   style="fill:#5d535e;fill-opacity:1;fill-rule:nonzero;stroke:none"
                   d="m 4092.3542,2907.1964 c 0,0 238.836,-646.92 928.045,-856.36 0,0 -485.428,143.6 -799.631,844.94 l -128.414,11.42" />
                <path
                   inkscape:connector-curvature="0"
                   id="path1876"
                   style="fill:#5d535e;fill-opacity:1;fill-rule:nonzero;stroke:none"
                   d="m 4480.9442,2464.6064 c 0,0 130.918,-43.78 277.185,-3.52 0,0 -121.35,-67.25 -212.42,-72.31 l -64.765,75.83" />
                <path
                   inkscape:connector-curvature="0"
                   id="path1878"
                   style="fill:#ec96a4;fill-opacity:1;fill-rule:nonzero;stroke:none"
                   d="m 4620.7522,2424.6164 c 0,0 111.757,189.11 371.697,36.07 0,0 -193.62,-214.96 -371.697,-36.07" />
                <path
                   inkscape:connector-curvature="0"
                   id="path1880"
                   style="fill:#e46c7f;fill-opacity:1;fill-rule:nonzero;stroke:none"
                   d="m 4631.7012,2427.0264 c 47.758,0.14 95.538,1.62 143.208,3.97 39.04,1.9 78.08,4.61 116.85,9.06 29.23,3.36 60.04,7.09 87.28,17.37 0.72,0.3 -3.25,3.24 -4.55,2.74 -26.07,-9.85 -55.29,-13.46 -83.24,-16.88 -38.6,-4.75 -77.63,-7.29 -116.56,-9.32 -48.86,-2.53 -97.89,-4.04 -146.835,-4.19 -1.477,-0.01 2.633,-2.76 3.847,-2.75" />
                <path
                   inkscape:connector-curvature="0"
                   id="path1882"
                   style="fill:#e46c7f;fill-opacity:1;fill-rule:nonzero;stroke:none"
                   d="m 4719.2992,2482.1764 c -11.48,-8.03 -22.7,-16.35 -33.68,-24.88 -6.29,-4.9 -29.86,-19.51 -27.91,-27.98 2.61,-11.19 21.99,-21.73 31.35,-28.03 19.65,-13.14 41.66,-24.57 65.32,-31.25 3.54,-0.98 0.62,2.55 -1.27,3.06 -15.94,4.49 -103.45,41.11 -86.58,60.75 15.05,17.51 37.63,31.69 57.16,45.35 1.68,1.18 -2.97,3.98 -4.39,2.98" />
                <path
                   inkscape:connector-curvature="0"
                   id="path1884"
                   style="fill:#e46c7f;fill-opacity:1;fill-rule:nonzero;stroke:none"
                   d="m 4801.0792,2502.0964 c -15.14,-10.98 -29.99,-22.25 -44.63,-33.72 -11.83,-9.31 -36.5,-23.77 -40.63,-38.16 -2.62,-9.19 32.72,-21.98 38.44,-24.32 28.11,-11.58 61.35,-22.89 93.06,-19.08 3.48,0.39 0.39,4.11 -2.08,3.81 -28.21,-3.39 -57.1,5.9 -82.57,15.54 -11.24,4.31 -22.16,9.36 -32.41,15.22 -8.3,4.73 -10.76,6.78 -4.54,13.65 21.84,24.22 52.49,44.17 79.58,63.84 2.18,1.59 -2.33,4.56 -4.22,3.22" />
                <path
                   inkscape:connector-curvature="0"
                   id="path1886"
                   style="fill:#e46c7f;fill-opacity:1;fill-rule:nonzero;stroke:none"
                   d="m 4859.4892,2492.7664 c -9.51,-7.35 -70.38,-49.45 -59.28,-60.78 10.76,-10.93 37.13,-14.43 52.1,-18.04 19.68,-4.73 45.48,-11.98 66.1,-7.77 2.84,0.58 -1.26,3.94 -3.34,3.52 -17.38,-3.54 -38.62,2.31 -55.45,5.9 -6.28,1.34 -55.38,10.13 -56,18.32 -0.71,10.11 24.44,26.49 31.62,32.59 9.28,7.91 18.81,15.62 28.52,23.14 1.97,1.53 -2.61,4.4 -4.27,3.12" />
                <path
                   inkscape:connector-curvature="0"
                   id="path1888"
                   style="fill:#e46c7f;fill-opacity:1;fill-rule:nonzero;stroke:none"
                   d="m 4919.6092,2485.3764 c -7.42,-5.19 -14.56,-10.69 -21.49,-16.33 -7.08,-5.8 -22.23,-16.1 -21.83,-25.63 0.28,-6.49 18.05,-9.92 23.04,-11.37 12.57,-3.64 25.56,-6.38 38.5,-8.86 2.89,-0.57 -1.21,2.78 -2.63,3.05 -8.84,1.67 -17.62,3.63 -26.36,5.73 -6.8,1.64 -13.56,3.49 -20.15,5.74 -6.92,2.36 -8.6,4.32 -4.96,9.88 9.05,13.74 26.29,25.04 40.28,34.87 1.5,1.05 -3.17,3.8 -4.4,2.92" />
                <path
                   inkscape:connector-curvature="0"
                   id="path1890"
                   style="fill:#ec96a4;fill-opacity:1;fill-rule:nonzero;stroke:none"
                   d="m 4723.5392,2206.7164 c 0,0 475.35,126.51 586.4,-418.08 0,0 -634.55,-59.74 -586.4,418.08" />
                <path
                   inkscape:connector-curvature="0"
                   id="path1892"
                   style="fill:#e46c7f;fill-opacity:1;fill-rule:nonzero;stroke:none"
                   d="m 4743.0992,2196.3264 c 67.78,-60.07 137.88,-118.28 209.25,-175.12 58.43,-46.59 118.21,-92.05 180.52,-134.68 46.98,-32.13 96.83,-65.75 152.64,-85.56 1.5,-0.51 0.81,8.65 -1.86,9.62 -53.39,18.96 -100.79,50.73 -146.07,81.15 -62.6,42.01 -122.09,87.67 -180.58,133.94 -73.36,58.08 -145.25,117.83 -214.75,179.4 -2.1,1.84 -0.9,-7.23 0.85,-8.75" />
                <path
                   inkscape:connector-curvature="0"
                   id="path1894"
                   style="fill:#e46c7f;fill-opacity:1;fill-rule:nonzero;stroke:none"
                   d="m 4959.5392,2163.7664 c -29.72,3.15 -59.54,5.54 -89.43,7.31 -17.07,1.05 -74.94,10.11 -86.38,-4.35 -15.11,-19.12 -5.35,-58.47 -2.69,-79.23 5.76,-43.39 17.72,-87.31 40.01,-126.65 3.37,-5.84 5.12,2.85 3.32,5.94 -15.01,26.5 -77.37,188.75 -20.59,195.22 50.67,5.78 106.42,-2.64 156.95,-7.97 4.38,-0.44 2.46,9.37 -1.19,9.73" />
                <path
                   inkscape:connector-curvature="0"
                   id="path1896"
                   style="fill:#e46c7f;fill-opacity:1;fill-rule:nonzero;stroke:none"
                   d="m 5108.6392,2088.7564 c -39.84,3.58 -79.73,6.38 -119.71,8.61 -32.33,1.79 -91.5,12.47 -121.5,-2.69 -19.13,-9.69 9.47,-72.38 13.6,-82.93 20.33,-51.86 48.38,-109.83 99.65,-144.46 5.61,-3.8 7.43,5.35 3.46,8.02 -45.62,30.8 -70.91,80.39 -90.73,126.21 -8.72,20.29 -15.69,41.21 -20.37,62.44 -3.78,17.17 -3.83,23.16 16.5,25.05 71.51,6.7 148.39,-3.75 219.69,-10.12 5.74,-0.51 4.34,9.37 -0.59,9.87" />
                <path
                   inkscape:connector-curvature="0"
                   id="path1898"
                   style="fill:#e46c7f;fill-opacity:1;fill-rule:nonzero;stroke:none"
                   d="m 5175.6192,2001.8364 c -25.76,1.61 -182.51,18.85 -185.81,-11.17 -3.13,-29.06 28.34,-67.27 43.44,-91.28 19.92,-31.53 44.27,-74.32 80.49,-94.41 4.98,-2.76 4.82,7.15 1.17,9.17 -30.52,16.94 -50.74,52.04 -68.56,78.35 -6.64,9.79 -61.35,84.24 -48.48,96.59 15.96,15.21 79.02,6.62 99.41,6.21 26.41,-0.51 52.82,-1.66 79.14,-3.27 5.37,-0.3 3.72,9.57 -0.8,9.81" />
                <path
                   inkscape:connector-curvature="0"
                   id="path1900"
                   style="fill:#e46c7f;fill-opacity:1;fill-rule:nonzero;stroke:none"
                   d="m 5248.2792,1915.5064 c -19.18,2.04 -38.51,3.26 -57.79,4.01 -19.75,0.73 -58.44,5.3 -73.88,-8.71 -10.5,-9.53 8.9,-36.79 13.52,-45.16 11.68,-21.02 25.47,-41.3 39.62,-61.13 3.15,-4.44 2.96,5.46 1.4,7.63 -9.72,13.54 -18.85,27.37 -27.66,41.39 -6.89,10.9 -13.36,22.06 -18.88,33.57 -5.86,12.06 -4.95,16.96 9.54,20.23 35.87,8.03 79.21,2.21 115.48,-1.52 3.83,-0.42 1.87,9.37 -1.35,9.69" />
                <path
                   inkscape:connector-curvature="0"
                   id="path1902"
                   style="fill:#5d535e;fill-opacity:1;fill-rule:nonzero;stroke:none"
                   d="m 4222.6392,2662.9064 c 0,0 -23.129,-221.61 -260.113,-327.53 0,0 140.101,-21.08 321.691,240.08 l -61.578,87.45" />
                <path
                   inkscape:connector-curvature="0"
                   id="path1904"
                   style="fill:#ec96a4;fill-opacity:1;fill-rule:nonzero;stroke:none"
                   d="m 4119.9632,2414.9664 c 0,0 -8.519,-234.07 -350.633,-187.94 0,0 76.02,293.3 350.633,187.94" />
                <path
                   inkscape:connector-curvature="0"
                   id="path1906"
                   style="fill:#e46c7f;fill-opacity:1;fill-rule:nonzero;stroke:none"
                   d="m 4110.3622,2408.0764 c -47.481,-19.65 -94.282,-40.68 -140.473,-62.49 -37.871,-17.87 -75.277,-36.55 -111.477,-56.83 -27.289,-15.29 -55.957,-31.6 -77.488,-53 -0.57,-0.57 4.984,-1.87 6.016,-0.86 20.617,20.47 47.761,36.01 73.718,50.86 35.887,20.51 73.379,39.02 111.059,56.96 47.293,22.5 95.305,44.03 143.98,64.22 1.454,0.6 -4.113,1.66 -5.335,1.14" />
                <path
                   inkscape:connector-curvature="0"
                   id="path1908"
                   style="fill:#e46c7f;fill-opacity:1;fill-rule:nonzero;stroke:none"
                   d="m 4053.0762,2317.3164 c 7.082,12.71 13.743,25.58 20.032,38.59 3.617,7.42 19.148,31.63 12.586,39.26 -8.676,10.09 -33.696,12.66 -46.457,15.11 -26.719,5.04 -54.833,7.44 -82.043,4.41 -4.059,-0.48 0.765,-2.78 2.925,-2.51 18.332,2.02 125.395,1.33 119.266,-25.11 -5.477,-23.6 -20.27,-46.96 -32.277,-68.56 -1.051,-1.88 5.121,-2.75 5.968,-1.19" />
                <path
                   inkscape:connector-curvature="0"
                   id="path1910"
                   style="fill:#e46c7f;fill-opacity:1;fill-rule:nonzero;stroke:none"
                   d="m 3982.4672,2264.0564 c 9.102,17.12 17.777,34.41 26.109,51.83 6.727,14.11 23.446,38.6 19.735,54.64 -2.375,10.21 -44.535,8.48 -51.492,8.5 -34.309,0.03 -73.571,-2.28 -103.079,-19.06 -3.246,-1.82 1.84,-4.26 4.141,-2.96 26.258,14.94 60.082,17.49 90.695,18.29 13.539,0.31 27.161,-0.24 40.567,-1.88 10.84,-1.33 14.375,-2.35 11.933,-11.75 -8.586,-33.06 -28.281,-65.49 -44.582,-96.14 -1.297,-2.48 4.813,-3.59 5.973,-1.47" />
                <path
                   inkscape:connector-curvature="0"
                   id="path1912"
                   style="fill:#e46c7f;fill-opacity:1;fill-rule:nonzero;stroke:none"
                   d="m 3919.2052,2249.4564 c 5.485,11.21 43.223,78.05 26.004,84.77 -16.648,6.51 -44.812,-0.81 -61.691,-3.32 -22.18,-3.35 -51.793,-6.68 -70.043,-19.3 -2.531,-1.74 3.379,-3.41 5.226,-2.14 15.391,10.63 39.719,13.48 58.43,16.81 6.977,1.23 60.668,12.56 65.734,4.64 6.207,-9.78 -9.945,-36.39 -13.773,-45.39 -4.953,-11.67 -10.254,-23.24 -15.828,-34.7 -1.141,-2.34 4.996,-3.34 5.941,-1.37" />
                <path
                   inkscape:connector-curvature="0"
                   id="path1914"
                   style="fill:#e46c7f;fill-opacity:1;fill-rule:nonzero;stroke:none"
                   d="m 3855.3112,2232.2364 c 4.578,8.19 8.687,16.59 12.523,25.05 3.895,8.68 13.395,25.11 7.817,34.45 -3.797,6.36 -23.372,2.5 -29.137,1.91 -14.504,-1.52 -28.93,-4.09 -43.156,-6.92 -3.2,-0.63 2.699,-2.28 4.269,-1.96 9.719,1.95 19.527,3.58 29.36,5.05 7.683,1.16 15.437,2.09 23.218,2.54 8.168,0.48 10.91,-0.8 10.305,-7.81 -1.543,-17.4 -12.582,-35.71 -21.172,-51.21 -0.918,-1.64 5.219,-2.48 5.973,-1.1" />
                <path
                   inkscape:connector-curvature="0"
                   id="path1916"
                   style="fill:#5d535e;fill-opacity:1;fill-rule:nonzero;stroke:none"
                   d="m 5611.7992,2385.1564 c 0,0 224.96,-334.95 851.49,-483.8 0,0 -353.62,104.59 -614.34,417.13 l -237.15,66.67" />
                <path
                   inkscape:connector-curvature="0"
                   id="path1918"
                   style="fill:#ec96a4;fill-opacity:1;fill-rule:nonzero;stroke:none"
                   d="m 6192.5892,2002.6364 c 0,0 307.53,161.98 496.96,-202.92 0,0 -432.86,-139.71 -496.96,202.92" />
                <path
                   inkscape:connector-curvature="0"
                   id="path1920"
                   style="fill:#e46c7f;fill-opacity:1;fill-rule:nonzero;stroke:none"
                   d="m 6208.4292,1998.3464 c 59.85,-31.69 120.96,-61.73 182.65,-90.6 50.54,-23.68 101.77,-46.33 154.22,-66.64 39.54,-15.31 81.39,-31.2 124.6,-36.51 1.16,-0.14 -1.21,6.18 -3.28,6.47 -41.34,5.05 -81.09,20.04 -119.08,34.41 -52.52,19.82 -103.61,42.67 -154.11,66.12 -63.34,29.45 -126.03,60.28 -187.38,92.76 -1.86,0.95 0.84,-5.21 2.38,-6.01" />
                <path
                   inkscape:connector-curvature="0"
                   id="path1922"
                   style="fill:#e46c7f;fill-opacity:1;fill-rule:nonzero;stroke:none"
                   d="m 6366.9192,2008.8664 c -21.48,-2.37 -42.89,-5.29 -64.22,-8.66 -12.19,-1.9 -54.65,-4.45 -59.71,-16.36 -6.68,-15.75 8.23,-41.85 14.36,-56 12.92,-29.54 30.31,-58.51 53.99,-82.66 3.56,-3.59 3.01,2.77 1.12,4.67 -15.95,16.27 -92.94,120.48 -54.44,133.77 34.37,11.86 75.2,14.54 111.75,18.6 3.15,0.35 -0.21,6.96 -2.85,6.64" />
                <path
                   inkscape:connector-curvature="0"
                   id="path1924"
                   style="fill:#e46c7f;fill-opacity:1;fill-rule:nonzero;stroke:none"
                   d="m 6486.8792,1979.2164 c -28.66,-3.62 -57.24,-7.8 -85.73,-12.39 -23.04,-3.73 -66.74,-5.37 -84.68,-20.63 -11.43,-9.74 21.46,-49.31 26.53,-56.07 24.87,-33.24 56.43,-69.59 99.48,-85.97 4.71,-1.8 4.13,4.89 0.78,6.15 -38.31,14.58 -66.2,45.46 -89.49,74.55 -10.26,12.89 -19.44,26.49 -27.06,40.67 -6.19,11.44 -7.44,15.64 6.43,20.1 48.79,15.73 104.86,20.24 156.17,26.75 4.14,0.53 1.13,7.26 -2.43,6.84" />
                <path
                   inkscape:connector-curvature="0"
                   id="path1926"
                   style="fill:#e46c7f;fill-opacity:1;fill-rule:nonzero;stroke:none"
                   d="m 6551.6792,1928.5864 c -18.41,-2.86 -131.9,-14.92 -128.07,-36.48 3.77,-20.87 33.67,-42.83 49.17,-57.34 20.44,-19.07 46.28,-45.32 75.8,-53.83 4.07,-1.17 1.92,5.77 -1.05,6.64 -24.89,7.15 -46.25,28.66 -64.14,44.37 -6.66,5.84 -60.28,49.63 -53.8,60.29 8.08,13.12 54.07,16.81 68.47,19.68 18.64,3.69 37.39,6.98 56.19,9.92 3.83,0.6 0.65,7.24 -2.57,6.75" />
                <path
                   inkscape:connector-curvature="0"
                   id="path1928"
                   style="fill:#e46c7f;fill-opacity:1;fill-rule:nonzero;stroke:none"
                   d="m 6620.3192,1879.2064 c -13.86,-1.52 -27.68,-3.65 -41.36,-6.09 -13.99,-2.53 -42.07,-5.3 -50.04,-17.47 -5.41,-8.31 13.78,-24.47 18.74,-29.62 12.51,-12.94 26.31,-25.04 40.3,-36.77 3.13,-2.64 0.98,4.27 -0.58,5.57 -9.58,7.98 -18.81,16.3 -27.87,24.76 -7.06,6.59 -13.88,13.42 -20.12,20.65 -6.59,7.55 -6.94,11.12 2.56,15.64 23.5,11.15 55.1,13.78 81.3,16.75 2.78,0.3 -0.61,6.85 -2.93,6.58" />
                <path
                   inkscape:connector-curvature="0"
                   id="path1930"
                   style="fill:#ec96a4;fill-opacity:1;fill-rule:nonzero;stroke:none"
                   d="m 7054.4992,2208.9164 c 0,0 258.6,437.6 860.12,83.45 0,0 -448.05,-497.41 -860.12,-83.45" />
                <path
                   inkscape:connector-curvature="0"
                   id="path1932"
                   style="fill:#e46c7f;fill-opacity:1;fill-rule:nonzero;stroke:none"
                   d="m 7079.8492,2214.4964 c 110.49,0.31 221.09,3.76 331.37,9.17 90.36,4.41 180.7,10.68 270.39,20.98 67.65,7.74 138.92,16.4 201.97,40.21 1.68,0.65 -7.52,7.46 -10.53,6.32 -60.33,-22.79 -127.95,-31.14 -192.59,-39.07 -89.34,-10.99 -179.65,-16.88 -269.75,-21.58 -113.07,-5.85 -226.49,-9.34 -339.78,-9.66 -3.38,-0.05 6.1,-6.38 8.92,-6.37" />
                <path
                   inkscape:connector-curvature="0"
                   id="path1934"
                   style="fill:#e46c7f;fill-opacity:1;fill-rule:nonzero;stroke:none"
                   d="m 7282.5792,2342.1064 c -26.6,-18.58 -52.56,-37.84 -77.96,-57.62 -14.56,-11.26 -69.11,-45.09 -64.6,-64.69 6.02,-25.93 50.88,-50.3 72.57,-64.88 45.46,-30.41 96.36,-56.86 151.13,-72.3 8.19,-2.26 1.41,5.87 -2.96,7.06 -36.88,10.43 -239.37,95.18 -200.32,140.58 34.83,40.5 87.07,73.33 132.26,104.96 3.89,2.74 -6.89,9.18 -10.12,6.89" />
                <path
                   inkscape:connector-curvature="0"
                   id="path1936"
                   style="fill:#e46c7f;fill-opacity:1;fill-rule:nonzero;stroke:none"
                   d="m 7471.7692,2388.1964 c -35.03,-25.41 -69.4,-51.46 -103.28,-78.04 -27.36,-21.51 -84.45,-54.96 -94.02,-88.28 -6.07,-21.27 75.74,-50.83 88.96,-56.27 65.06,-26.81 141.97,-53.02 215.35,-44.17 8.05,0.93 0.88,9.52 -4.83,8.84 -65.28,-7.88 -132.11,13.63 -191.04,35.97 -26.03,9.94 -51.31,21.62 -75.03,35.19 -19.2,10.96 -24.86,15.68 -10.49,31.6 50.55,56.01 121.47,102.24 184.18,147.71 5.02,3.68 -5.42,10.56 -9.8,7.45" />
                <path
                   inkscape:connector-curvature="0"
                   id="path1938"
                   style="fill:#e46c7f;fill-opacity:1;fill-rule:nonzero;stroke:none"
                   d="m 7606.9392,2366.5964 c -22,-16.98 -162.84,-114.41 -137.17,-140.62 24.89,-25.31 85.94,-33.38 120.53,-41.76 45.57,-10.94 105.23,-27.68 152.97,-17.97 6.58,1.34 -2.91,9.1 -7.74,8.15 -40.21,-8.21 -89.36,5.35 -128.3,13.65 -14.51,3.07 -128.16,23.44 -129.58,42.38 -1.65,23.41 56.57,61.29 73.17,75.42 21.49,18.31 43.55,36.16 65.99,53.53 4.57,3.56 -6.05,10.23 -9.87,7.22" />
                <path
                   inkscape:connector-curvature="0"
                   id="path1940"
                   style="fill:#e46c7f;fill-opacity:1;fill-rule:nonzero;stroke:none"
                   d="m 7746.0392,2349.5064 c -17.17,-11.98 -33.67,-24.73 -49.7,-37.79 -16.37,-13.42 -51.44,-37.24 -50.54,-59.3 0.63,-15.04 41.77,-22.97 53.33,-26.32 29.1,-8.41 59.18,-14.77 89.1,-20.49 6.68,-1.3 -2.79,6.42 -6.09,7.05 -20.45,3.85 -40.79,8.4 -60.98,13.28 -15.74,3.8 -31.41,8.07 -46.64,13.29 -16.04,5.44 -19.92,9.98 -11.51,22.85 20.98,31.79 60.9,57.94 93.21,80.67 3.47,2.4 -7.33,8.78 -10.18,6.76" />
              </g>
            </g>
          </g>
        </g>
      </g>
    </g>
  </g>
</svg>
